<svg width="26" height="26" viewBox="0 0 26 26" fill="none" xmlns="http://www.w3.org/2000/svg">
<path d="M23.4015 15.3572C23.4015 14.6822 23.9496 14.1342 24.6245 14.1342C25.2995 14.1342 25.8475 14.6822 25.8475 15.3572V22.3797C25.8475 23.3763 25.4412 24.2819 24.7853 24.9378C24.1294 25.5938 23.2238 26 22.2272 26H3.62026C2.62368 26 1.71809 25.5938 1.06217 24.9378C0.406247 24.2819 0 23.3763 0 22.3797V3.63735C0 2.64077 0.406247 1.73518 1.06217 1.07926C1.71809 0.423341 2.62368 0.0170937 3.62026 0.0170937H10.5984C11.2734 0.0170937 11.8214 0.565104 11.8214 1.24007C11.8214 1.91503 11.2734 2.46304 10.5984 2.46304H3.62026C3.29864 2.46304 3.00665 2.59634 2.79295 2.80793C2.57925 3.02163 2.44806 3.31362 2.44806 3.63523V22.3776C2.44806 22.6992 2.58136 22.9912 2.79295 23.2049C3.00665 23.4186 3.29864 23.5498 3.62026 23.5498H22.2293C22.551 23.5498 22.843 23.4165 23.0567 23.2049C23.2704 22.9933 23.4015 22.6992 23.4015 22.3776V15.3572ZM23.7866 3.69448L11.4278 16.2077C10.956 16.688 10.1816 16.6944 9.70127 16.2226C9.22097 15.7507 9.21462 14.9763 9.68646 14.496L21.5692 2.46304H16.6223C15.9473 2.46304 15.3993 1.91503 15.3993 1.24007C15.3993 0.565104 15.9473 0.0170937 16.6223 0.0170937H22.2293C23.3127 0.0170937 24.7092 -0.166987 25.5407 0.673014C26.0654 1.2041 25.9491 5.43796 25.8813 7.89025C25.8644 8.52501 25.8496 9.00955 25.8496 9.35655C25.8496 10.0315 25.3016 10.5795 24.6266 10.5795C23.9517 10.5795 23.4037 10.0315 23.4037 9.35655C23.4037 9.29096 23.4206 8.65408 23.4439 7.82466C23.4777 6.54667 23.683 4.85398 23.7866 3.69448Z" fill="#D8DEED"/>
</svg>
