<svg width="19" height="21" viewBox="0 0 19 21" fill="none" xmlns="http://www.w3.org/2000/svg">
<path d="M18.9999 7.71966C18.995 6.39145 18.5521 5.10501 17.7446 4.07253C18.0189 2.89243 17.9332 1.65326 17.5 0.525196C17.4146 0.308042 17.2395 0.14202 17.0232 0.0725798C16.7169 -0.036001 15.558 -0.23958 13.1966 1.34391V1.34422C12.1808 1.06678 11.1332 0.935797 10.0829 0.955052C9.03108 0.935483 7.98173 1.06647 6.96464 1.34422C4.54194 -0.275601 3.28237 -0.0133194 3.02888 0.0636842C2.81138 0.135963 2.63659 0.305457 2.55208 0.525132C2.11769 1.6494 2.02891 2.88509 2.29858 4.06366C1.46454 5.09073 1.02011 6.39648 1.04783 7.73762C1.04783 12.7423 3.81586 14.2535 6.35242 14.7875C6.22216 15.117 6.13248 15.462 6.0858 15.8146C6.08123 15.8522 6.08123 15.8903 6.0858 15.9279V17.3123C3.77689 17.5114 3.28263 16.1132 3.23445 15.9547V15.955C3.22316 15.9181 3.21004 15.8818 3.19479 15.8461C2.74881 14.905 1.96388 14.1818 1.00817 13.8327C0.60733 13.6942 0.173504 13.918 0.0396511 14.3327C-0.0942638 14.7474 0.122016 15.1963 0.522856 15.3351C1.05242 15.533 1.49418 15.9238 1.76501 16.4344C2.07129 17.4615 3.32204 19.086 6.07695 18.9048V20.2081C6.07695 20.6455 6.41953 21 6.84233 21C7.26484 21 7.60771 20.6455 7.60771 20.2081V15.9865C7.66567 15.5254 7.85969 15.0943 8.16291 14.7512C8.38011 14.541 8.45882 14.2193 8.36485 13.9274C8.2709 13.6358 8.02106 13.4271 7.72577 13.3937C5.05809 13.0724 2.59174 12.1631 2.59174 7.70598H2.59143C2.55574 6.61832 2.96177 5.56475 3.71098 4.80093C3.91415 4.57494 3.98125 4.25205 3.88608 3.95947C3.62831 3.18492 3.61154 2.34627 3.83788 1.56129C4.7768 1.78065 5.65871 2.20833 6.42231 2.81468C6.62121 2.95071 6.86922 2.98575 7.09587 2.90968C8.06775 2.60352 9.08054 2.46149 10.0961 2.48895C11.1097 2.46149 12.1214 2.60353 13.0917 2.90968C13.3183 2.98638 13.5666 2.95135 13.7652 2.81468C14.5007 2.23139 15.3426 1.80814 16.2404 1.57018C16.4634 2.36398 16.4436 3.20955 16.1834 3.99106C16.0964 4.25651 16.1532 4.55005 16.3322 4.76025C17.0561 5.56006 17.4661 6.61044 17.4823 7.70602C17.4823 12.1539 14.889 13.0771 12.3483 13.3937C12.0368 13.4297 11.7784 13.6592 11.6973 13.9723C11.6161 14.2854 11.7287 14.6177 11.981 14.8103C12.2522 15.023 12.567 15.6201 12.567 16.62V20.2037C12.567 20.6412 12.9096 20.9957 13.3321 20.9957C13.7549 20.9957 14.0975 20.6412 14.0975 20.2037V16.62C14.1054 15.9897 13.994 15.3641 13.7695 14.7783C15.8249 14.326 19 12.9278 19 7.71961L18.9999 7.71966Z" fill="#D8DEED"/>
</svg>
