<svg width="21" height="19" viewBox="0 0 21 19" fill="none" xmlns="http://www.w3.org/2000/svg">
<path d="M7.86713 6.08027H11.5144C11.6626 6.08027 11.7822 6.19536 11.7822 6.33785V7.41199C12.0786 7.09961 12.4547 6.81464 12.9163 6.58446C13.5261 6.27756 14.284 6.08027 15.1674 6.08027C17.1962 6.08027 18.41 6.69955 19.1167 7.71889C19.8119 8.72179 20 10.0919 20 11.6373V17.7424C20 17.8849 19.8803 18 19.7322 18H15.931C15.7828 18 15.6632 17.8849 15.6632 17.7424V12.3279C15.6632 11.7086 15.6575 10.9961 15.4238 10.4645C15.213 9.98227 14.7912 9.63153 13.9535 9.63153C13.0759 9.63153 12.5801 9.93295 12.3008 10.3878C12.0045 10.8701 11.9361 11.5442 11.9361 12.2292V17.7369C11.9361 17.8794 11.8164 17.9945 11.6683 17.9945H7.86713C7.71896 17.9945 7.59928 17.8794 7.59928 17.7369V6.32689C7.59928 6.1844 7.71896 6.06931 7.86713 6.06931V6.08027ZM11.2466 6.59542H8.13497V17.4903H11.3947V12.2402C11.3947 11.4729 11.4802 10.7166 11.8335 10.1357C12.204 9.5274 12.8479 9.12186 13.9478 9.12186C15.0591 9.12186 15.6233 9.60413 15.9139 10.2727C16.1875 10.8975 16.1932 11.6647 16.1932 12.3333V17.4903H19.4586V11.6428C19.4586 10.1905 19.2876 8.90812 18.6665 8.00935C18.0567 7.12701 16.9853 6.59542 15.1617 6.59542C14.3695 6.59542 13.6971 6.77079 13.1557 7.04481C12.506 7.36815 12.0501 7.82302 11.7936 8.26144C11.7481 8.33817 11.6626 8.39297 11.56 8.39297H11.5087C11.3605 8.39297 11.2409 8.27788 11.2409 8.1354V6.59542H11.2466ZM5.5021 3.16473C5.5021 3.76209 5.25135 4.29916 4.84103 4.69375C4.43641 5.08285 3.87223 5.32946 3.25105 5.32946C2.62987 5.32946 2.07139 5.08833 1.66107 4.69375C1.25645 4.30464 1 3.76209 1 3.16473C1 2.56738 1.25075 2.0303 1.66107 1.63572C2.06569 1.24662 2.62987 1 3.25105 1C3.87223 1 4.43071 1.24113 4.84103 1.63572C5.24565 2.02482 5.5021 2.56738 5.5021 3.16473ZM4.46491 4.32656C4.77265 4.03063 4.96641 3.6196 4.96641 3.16473C4.96641 2.70986 4.77265 2.29884 4.46491 2.0029C4.15717 1.70696 3.72975 1.52063 3.25675 1.52063C2.78374 1.52063 2.35633 1.70696 2.04859 2.0029C1.74085 2.29884 1.54709 2.70986 1.54709 3.16473C1.54709 3.6196 1.74085 4.03063 2.04859 4.32656C2.35633 4.6225 2.78374 4.80883 3.25675 4.80883C3.72975 4.80883 4.15717 4.6225 4.46491 4.32656ZM1.27924 6.07479H5.23425C5.38242 6.07479 5.5021 6.18988 5.5021 6.33237V17.7424C5.5021 17.8849 5.38242 18 5.23425 18H1.27924C1.13107 18 1.0114 17.8849 1.0114 17.7424V6.33237C1.0114 6.18988 1.13107 6.07479 1.27924 6.07479ZM4.96641 6.58994H1.54709V17.4848H4.96641V6.58994Z" fill="#D8DEED" stroke="#D8DEED" stroke-width="0.5"/>
</svg>
