<svg width="21" height="17" viewBox="0 0 21 17" fill="none" xmlns="http://www.w3.org/2000/svg">
<path d="M18.9596 3.52568C18.8912 3.54769 18.8171 3.5642 18.7488 3.58621C18.3726 3.68525 17.9851 3.75679 17.5918 3.80081C17.4436 3.81731 17.3126 3.71277 17.2955 3.5697C17.2841 3.45965 17.3411 3.3551 17.4379 3.31108C17.797 3.10198 18.1161 2.83236 18.3726 2.51321C18.4809 2.38114 18.5778 2.24358 18.669 2.09501C18.5037 2.17205 18.3327 2.23808 18.156 2.30411C17.7457 2.45818 17.3126 2.57373 16.8737 2.66178C16.7768 2.67828 16.6799 2.64527 16.6173 2.57373C16.2924 2.24358 15.8992 1.97395 15.4546 1.79237C15.0272 1.61629 14.5541 1.51724 14.0526 1.51724C13.0838 1.51724 12.2004 1.89692 11.5678 2.51321C10.9295 3.12949 10.5362 3.97689 10.5362 4.91233C10.5362 5.04989 10.5419 5.17645 10.559 5.30301C10.5761 5.43507 10.5989 5.56163 10.6274 5.68269C10.6616 5.82025 10.5704 5.96332 10.4279 5.99083C10.3994 5.99633 10.3709 5.99633 10.3424 5.99633C8.75806 5.9193 7.26487 5.51761 5.93125 4.8628C4.67173 4.24652 3.54899 3.39912 2.62002 2.38114C2.54593 2.54072 2.48894 2.70029 2.44334 2.87087C2.36355 3.15701 2.32366 3.45415 2.32366 3.75679C2.32366 4.33456 2.47184 4.88481 2.734 5.35803C3.00756 5.85327 3.40081 6.27146 3.88524 6.5796C4.01062 6.65664 4.04482 6.82172 3.95933 6.93727C3.90234 7.01981 3.80545 7.05833 3.71426 7.05282C3.39511 7.04182 3.08165 6.9978 2.7853 6.91526C2.62002 6.87124 2.46614 6.82172 2.31226 6.75569C2.38635 7.427 2.66561 8.03778 3.08735 8.53302C3.59458 9.12729 4.30128 9.55649 5.11627 9.71057C5.26445 9.73808 5.35563 9.87564 5.32714 10.0187C5.30434 10.1233 5.22455 10.1948 5.12767 10.2223C4.96239 10.2663 4.78571 10.2993 4.60334 10.3214C4.42097 10.3434 4.24429 10.3544 4.06762 10.3544C3.97073 10.3544 3.86814 10.3489 3.76556 10.3434C4.01632 10.8606 4.39247 11.3063 4.8598 11.642C5.42972 12.0492 6.13073 12.2968 6.88872 12.3133C7.0369 12.3133 7.15658 12.4343 7.15088 12.5774C7.15088 12.6599 7.11099 12.7315 7.0483 12.7755C6.36439 13.2927 5.5893 13.7054 4.75722 13.9806C4.01062 14.2282 3.21274 14.3712 2.38065 14.3933C2.93917 14.6629 3.52619 14.8885 4.13031 15.0591C4.13601 15.0591 4.13601 15.0591 4.14171 15.0646C5.07067 15.3287 6.05664 15.4663 7.08249 15.4663C10.2057 15.4663 12.6791 14.3162 14.4345 12.6214C16.5033 10.624 17.5861 7.86721 17.5861 5.32502V5.09391C17.5861 5.02238 17.5804 4.94534 17.5804 4.8628C17.5747 4.77476 17.6203 4.69222 17.6944 4.6427C18.0478 4.39508 18.3783 4.11996 18.6861 3.81731C18.783 3.71827 18.8741 3.61922 18.9653 3.52018L18.9596 3.52568ZM18.6063 3.08547C18.9482 2.99743 19.2845 2.88188 19.6036 2.74431C19.7062 2.68929 19.8373 2.7058 19.9228 2.78833C20.0197 2.88188 20.0254 3.03595 19.9399 3.135C19.6777 3.50917 19.3871 3.86134 19.0622 4.18048C18.7716 4.47212 18.4524 4.74175 18.1161 4.98936V5.09391C18.1161 5.20396 18.1218 5.2865 18.1218 5.33602C18.1218 8.01027 16.982 10.9046 14.8106 13.0011C12.9584 14.7894 10.3595 16 7.07679 16C6.00534 16 4.96809 15.8514 3.98783 15.5763C3.98213 15.5763 3.97643 15.5763 3.97643 15.5708C2.96197 15.2847 2.0102 14.861 1.13823 14.3217C1.04704 14.2722 0.990047 14.1731 1.00145 14.0631C1.01854 13.92 1.15532 13.821 1.2978 13.8375C1.44598 13.854 1.58846 13.865 1.73094 13.876C1.86772 13.8815 2.0159 13.887 2.16978 13.887C3.01326 13.887 3.81685 13.7495 4.56915 13.5018C5.12767 13.3147 5.65769 13.0671 6.14212 12.7645C5.54371 12.6489 4.99659 12.4068 4.52355 12.0712C3.85105 11.5869 3.33812 10.9101 3.07595 10.1233C3.06456 10.0847 3.05886 10.0407 3.06456 9.9967C3.09305 9.85363 3.22983 9.76009 3.37801 9.7876C3.4863 9.80411 3.60028 9.82062 3.70857 9.83162C3.75986 9.83712 3.81685 9.84263 3.86814 9.84263C3.40081 9.60051 2.98477 9.26486 2.64851 8.87418C2.07859 8.19736 1.73094 7.33346 1.73094 6.39252V6.3485C1.73094 6.30448 1.74234 6.26596 1.76514 6.22194C1.83353 6.09538 1.99881 6.05136 2.12989 6.11739C2.35216 6.23294 2.58012 6.32649 2.82519 6.39802C2.59722 6.16141 2.40345 5.89178 2.24387 5.60565C1.93611 5.05539 1.76514 4.4226 1.76514 3.76229C1.76514 3.41563 1.81073 3.07447 1.90762 2.74431C1.99881 2.41416 2.13559 2.09501 2.31796 1.79237C2.33506 1.76486 2.35216 1.74285 2.38065 1.72084C2.49464 1.6328 2.66561 1.6493 2.7568 1.75935C3.68007 2.85437 4.83701 3.76229 6.15922 4.40609C7.33896 4.98386 8.64407 5.35253 10.029 5.46258C10.0233 5.42957 10.0176 5.39655 10.0176 5.36354C10.0005 5.21497 9.98909 5.0609 9.98909 4.91233C9.98909 3.83382 10.445 2.85437 11.1745 2.14453C11.9097 1.4347 12.9185 1 14.0412 1C14.6111 1 15.1583 1.11555 15.6541 1.31915C16.1214 1.51174 16.5375 1.78687 16.8965 2.12803C17.2556 2.05099 17.6089 1.95194 17.9509 1.82539C18.3441 1.68232 18.7203 1.50624 19.0736 1.30264C19.1363 1.26412 19.2161 1.25312 19.2902 1.28063C19.4327 1.32465 19.5068 1.46772 19.4612 1.60528C19.3073 2.062 19.0736 2.48019 18.7716 2.84336C18.6975 2.9314 18.6234 3.01944 18.5436 3.10198L18.5835 3.09098L18.6063 3.08547Z" fill="#D8DEED" stroke="#D8DEED" stroke-width="0.5"/>
</svg>
