<svg width="590" height="590" viewBox="0 0 590 590" fill="none" xmlns="http://www.w3.org/2000/svg">
<path d="M336.747 468.16C340.481 476.374 347.944 480.853 356.159 480.853C359.143 480.853 362.133 480.108 365.117 478.613C376.315 473.384 380.8 460.692 375.57 449.493C375.57 449.493 334.502 355.414 327.039 321.066C324.055 309.119 322.56 277.014 321.81 262.082C321.81 256.853 324.795 252.374 329.279 250.885L421.118 223.259C432.316 220.275 439.039 207.577 436.05 196.379C433.065 185.181 420.367 178.458 409.17 181.447C409.17 181.447 324.05 209.073 293.435 209.073C263.571 209.073 179.195 182.193 179.195 182.193C167.997 179.208 155.299 184.432 151.57 195.63C147.835 207.578 154.554 220.27 166.502 223.255L258.34 250.881C262.82 252.375 266.554 256.855 265.809 262.078C265.064 277.01 263.57 309.12 260.58 321.062C253.111 355.412 212.049 449.489 212.049 449.489C206.82 460.687 212.049 473.385 222.502 478.609C225.487 480.104 228.476 480.849 231.461 480.849C239.674 480.849 247.887 476.369 250.873 468.156L294.935 378.557L336.747 468.16Z" fill="#D7DAE1"/>
<path d="M336.747 145.6C336.747 168.693 318.028 187.412 294.935 187.412C271.842 187.412 253.123 168.693 253.123 145.6C253.123 122.507 271.842 103.788 294.935 103.788C318.028 103.788 336.747 122.507 336.747 145.6Z" fill="#D7DAE1"/>
<path d="M589.867 294.933C589.867 132.16 457.705 0 294.933 0C132.161 0 0 132.161 0 294.933C0 457.705 132.161 589.867 294.933 589.867C457.705 589.867 589.867 457.705 589.867 294.933ZM49.28 294.933C49.28 159.04 159.785 49.28 294.933 49.28C430.081 49.28 540.587 159.035 540.587 294.933C540.587 430.832 430.832 540.587 294.933 540.587C159.035 540.587 49.28 430.832 49.28 294.933V294.933Z" fill="#D7DAE1"/>
</svg>
