<svg width="800" height="496" viewBox="0 0 800 496" fill="none" xmlns="http://www.w3.org/2000/svg">
<g filter="url(#filter0_d_104_3)">
<path d="M800 463.6C788.357 468.004 775.504 467.994 763.868 463.573C752.231 459.151 742.615 450.624 736.833 439.6L621.833 280.567L605.167 258.333L471.733 439.8C466.3 450.362 457.205 458.583 446.15 462.926C435.095 467.27 422.837 467.438 411.667 463.4L583.6 232.733L423.667 24.3667C435.167 20.2225 447.743 20.1675 459.279 24.2111C470.814 28.2546 480.604 36.1496 487 46.5667L606.2 207.567L726.067 47.2333C731.543 36.8596 740.639 28.8596 751.628 24.7543C762.616 20.649 774.73 20.7245 785.667 24.9667L723.6 107.333L639.533 216.767C637.199 218.849 635.331 221.402 634.052 224.257C632.772 227.112 632.111 230.205 632.111 233.333C632.111 236.462 632.772 239.555 634.052 242.41C635.331 245.265 637.199 247.817 639.533 249.9L799.667 463.633L800 463.6ZM0.0667003 229.867L14.0667 160.7C52.5334 23.9333 209.333 -32.9667 317.2 51.7C380.367 101.333 396.133 171.6 393.033 250.8H37.2C31.4334 392.233 133.5 477.633 264 434C285.155 426.385 304.091 413.641 319.112 396.91C334.132 380.18 344.768 359.984 350.067 338.133C356.967 315.933 368.333 312.133 389.2 318.533C385.723 345.613 376.15 371.551 361.202 394.397C346.255 417.243 326.321 436.403 302.9 450.433C264.214 471.594 219.828 479.981 176.087 474.396C132.347 468.81 91.4933 449.537 59.3667 419.333C27.601 383.58 8.40257 338.416 4.70003 290.733C4.70003 282.9 2.03337 275.567 0.233367 268.533C0.0711013 255.656 -0.00667811 242.778 3.3665e-05 229.9L0.0667003 229.867ZM37.6334 220.333H359.433C357.433 117.8 292.733 45.0667 206.433 44.4C110.367 43.0667 41.6334 114.2 37.4 219.867L37.6334 220.333Z" fill="#070707"/>
<path d="M801.946 468.744L800.584 462.946L804.068 460.336L643.935 246.602L643.605 246.162L643.195 245.796C641.438 244.229 640.033 242.309 639.071 240.161C638.109 238.014 637.611 235.687 637.611 233.333C637.611 230.98 638.109 228.653 639.071 226.505C640.033 224.358 641.438 222.438 643.195 220.871L643.58 220.527L643.895 220.117L727.962 110.684L727.977 110.664L727.992 110.643L790.059 28.2766L794.436 22.4688L787.656 19.8389C775.462 15.109 761.955 15.0247 749.703 19.6021C737.589 24.1279 727.537 32.8987 721.411 44.2757L606.221 198.353L491.559 43.4808C484.499 32.0891 473.75 23.4556 461.098 19.0207C448.369 14.5589 434.492 14.6195 421.802 19.1924L414.721 21.7443L419.304 27.7155L576.704 232.782L407.257 460.113L402.829 466.053L409.797 468.572C422.224 473.065 435.862 472.878 448.161 468.045C460.321 463.268 470.349 454.274 476.417 442.715L605.209 267.56L617.377 283.789L617.433 283.866L732.151 442.512C738.576 454.552 749.148 463.864 761.914 468.714C774.807 473.613 789.046 473.623 801.946 468.744ZM8.77213 159.211L8.71666 159.408L8.67602 159.609L-4.7917 226.146L-5.49819 226.499L-5.49997 229.897C-5.50669 242.799 -5.42877 255.701 -5.2662 268.603L-5.25791 269.26L-5.09491 269.897C-4.63188 271.706 -4.15067 273.43 -3.68506 275.098C-2.15863 280.567 -0.799966 285.434 -0.799966 290.733V290.947L-0.78346 291.159C3.012 340.039 22.6922 386.335 55.2551 422.986L55.4193 423.171L55.5994 423.34C88.5712 454.339 130.5 474.119 175.391 479.851C220.282 485.584 265.836 476.976 305.539 455.259L305.634 455.207L305.727 455.151C329.86 440.693 350.402 420.951 365.805 397.409C381.208 373.866 391.072 347.138 394.655 319.234L395.246 314.635L390.813 313.275C380.084 309.984 370.326 308.799 362.083 312.618C353.666 316.518 348.435 324.852 344.815 336.501L344.763 336.668L344.722 336.837C339.638 357.804 329.432 377.182 315.019 393.236C300.62 409.275 282.472 421.495 262.196 428.804C198.469 450.093 142.391 439.729 102.979 407.54C64.4895 376.104 41.0811 323.179 42.5306 256.3H393.033H398.322L398.529 251.015C401.661 171.005 385.76 98.5766 320.598 47.3753L320.596 47.3736C209.334 -39.9578 48.1888 19.0665 8.77213 159.211ZM206.357 49.8995L206.374 49.8997L206.391 49.8998C287.453 50.526 349.61 117.537 353.76 214.833H43.162C46.1938 165.488 63.7644 124.528 91.4385 95.8259C120.055 66.1464 159.771 49.2529 206.357 49.8995Z" stroke="#070707" stroke-width="11"/>
</g>
<defs>
<filter id="filter0_d_104_3" x="-15.0004" y="0.828461" width="827.47" height="494.252" filterUnits="userSpaceOnUse" color-interpolation-filters="sRGB">
<feFlood flood-opacity="0" result="BackgroundImageFix"/>
<feColorMatrix in="SourceAlpha" type="matrix" values="0 0 0 0 0 0 0 0 0 0 0 0 0 0 0 0 0 0 127 0" result="hardAlpha"/>
<feOffset dy="4"/>
<feGaussianBlur stdDeviation="2"/>
<feComposite in2="hardAlpha" operator="out"/>
<feColorMatrix type="matrix" values="0 0 0 0 0 0 0 0 0 0 0 0 0 0 0 0 0 0 0.25 0"/>
<feBlend mode="normal" in2="BackgroundImageFix" result="effect1_dropShadow_104_3"/>
<feBlend mode="normal" in="SourceGraphic" in2="effect1_dropShadow_104_3" result="shape"/>
</filter>
</defs>
</svg>
