<svg width="800" height="474" viewBox="0 0 800 474" fill="none" xmlns="http://www.w3.org/2000/svg">
<g filter="url(#filter0_d_104_3)">
<path d="M800 452.6C788.357 457.004 775.504 456.994 763.868 452.573C752.231 448.151 742.615 439.624 736.833 428.6L621.833 269.567L605.167 247.333L471.733 428.8C466.3 439.362 457.205 447.583 446.15 451.926C435.095 456.27 422.837 456.438 411.667 452.4L583.6 221.733L423.667 13.3667C435.167 9.22248 447.743 9.16755 459.279 13.2111C470.814 17.2546 480.604 25.1496 487 35.5667L606.2 196.567L726.067 36.2333C731.543 25.8596 740.639 17.8596 751.628 13.7543C762.616 9.64896 774.73 9.72454 785.667 13.9667L723.6 96.3333L639.533 205.767C637.199 207.849 635.331 210.402 634.052 213.257C632.772 216.112 632.111 219.205 632.111 222.333C632.111 225.462 632.772 228.555 634.052 231.41C635.331 234.265 637.199 236.817 639.533 238.9L799.667 452.633L800 452.6ZM0.0667003 218.867L14.0667 149.7C52.5334 12.9333 209.333 -43.9667 317.2 40.7C380.367 90.3333 396.133 160.6 393.033 239.8H37.2C31.4334 381.233 133.5 466.633 264 423C285.155 415.385 304.091 402.641 319.112 385.91C334.132 369.18 344.768 348.984 350.067 327.133C356.967 304.933 368.333 301.133 389.2 307.533C385.723 334.613 376.15 360.551 361.202 383.397C346.255 406.243 326.321 425.403 302.9 439.433C264.214 460.594 219.828 468.981 176.087 463.396C132.347 457.81 91.4933 438.537 59.3667 408.333C27.601 372.58 8.40257 327.416 4.70003 279.733C4.70003 271.9 2.03337 264.567 0.233367 257.533C0.0711013 244.656 -0.00667811 231.778 3.3665e-05 218.9L0.0667003 218.867ZM37.6334 209.333H359.433C357.433 106.8 292.733 34.0667 206.433 33.4C110.367 32.0667 41.6334 103.2 37.4 208.867L37.6334 209.333Z" fill="#F9F9F9"/>
</g>
<defs>
<filter id="filter0_d_104_3" x="-4.00037" y="0.886597" width="808" height="472.193" filterUnits="userSpaceOnUse" color-interpolation-filters="sRGB">
<feFlood flood-opacity="0" result="BackgroundImageFix"/>
<feColorMatrix in="SourceAlpha" type="matrix" values="0 0 0 0 0 0 0 0 0 0 0 0 0 0 0 0 0 0 127 0" result="hardAlpha"/>
<feOffset dy="4"/>
<feGaussianBlur stdDeviation="2"/>
<feComposite in2="hardAlpha" operator="out"/>
<feColorMatrix type="matrix" values="0 0 0 0 0 0 0 0 0 0 0 0 0 0 0 0 0 0 0.25 0"/>
<feBlend mode="normal" in2="BackgroundImageFix" result="effect1_dropShadow_104_3"/>
<feBlend mode="normal" in="SourceGraphic" in2="effect1_dropShadow_104_3" result="shape"/>
</filter>
</defs>
</svg>
