<svg width="589" height="434" viewBox="0 0 589 434" fill="none" xmlns="http://www.w3.org/2000/svg">
<path d="M282.241 373.335V418.138H217.282C212.803 418.138 209.813 421.122 209.813 425.606C209.813 430.086 212.798 433.075 217.282 433.075H394.989C399.468 433.075 402.458 430.091 402.458 425.606C402.458 421.127 399.473 418.138 394.989 418.138H341.973V373.335H282.241Z" fill="#D7DAE1"/>
<path d="M147.841 412.162V192.641C147.841 188.907 144.857 186.667 141.867 186.667H5.97399C2.23959 186.667 0 189.652 0 192.641V411.415C0 415.149 2.98439 417.389 5.97399 417.389H141.867C145.597 418.139 147.836 415.149 147.836 412.165L147.841 412.162ZM88.852 403.203H65.7067C61.2275 403.203 58.2379 400.219 58.2379 395.734C58.2379 391.255 61.2223 388.266 65.7067 388.266H88.852C93.3312 388.266 96.3208 391.25 96.3208 395.734C96.3208 400.214 92.5864 403.203 88.852 403.203Z" fill="#D7DAE1"/>
<path d="M468.908 306.135H162.774V358.4H468.908V306.135ZM319.574 337.495C318.08 338.99 316.59 339.734 314.345 339.734C313.6 339.734 312.106 339.734 311.361 338.99C310.616 338.245 309.866 338.245 309.121 337.495C307.626 336 306.882 334.505 306.882 332.266C306.882 330.026 307.626 328.531 309.121 327.036C309.866 326.292 310.616 325.542 311.361 325.542C314.345 324.047 317.335 324.797 319.574 327.036C321.069 328.531 321.814 330.021 321.814 332.266C321.814 334.505 321.064 336 319.574 337.495V337.495Z" fill="#D7DAE1"/>
<path d="M489.068 418.135H583.151C586.135 418.135 588.38 415.895 588.38 412.905L588.375 259.092C588.375 256.108 586.135 253.863 583.146 253.863L489.067 253.868C486.083 253.868 483.838 256.108 483.838 259.097V412.911C483.843 415.895 486.827 418.135 489.067 418.135L489.068 418.135ZM528.647 388.265H543.579C548.058 388.265 551.048 391.25 551.048 395.734C551.048 400.213 548.063 403.203 543.579 403.203H528.647C524.168 403.203 521.178 400.218 521.178 395.734C521.178 391.255 524.913 388.265 528.647 388.265Z" fill="#D7DAE1"/>
<path d="M468.908 259.095C468.908 247.897 477.866 238.933 489.069 238.933H545.815V18.6667C545.815 8.21361 537.601 0 527.148 0H98.5612C88.1081 0 79.8945 8.21361 79.8945 18.6667V171.733H141.868C153.816 171.733 162.775 181.442 162.775 192.64V291.203H468.908V259.095Z" fill="#D7DAE1"/>
</svg>
