<svg width="569" height="569" viewBox="0 0 569 569" fill="none" xmlns="http://www.w3.org/2000/svg">
<path d="M553.467 224.6H516.076C510.43 202.679 501.716 182.012 490.483 162.991L516.972 136.501C522.805 130.668 522.805 121.215 516.972 115.387L453.617 52.0321C447.784 46.1988 438.331 46.1988 432.503 52.0321L406.013 78.5214C387.003 67.2922 366.325 58.5681 344.404 52.9281L344.399 15.5321C344.399 7.2821 337.716 0.600098 329.467 0.600098H239.863C231.613 0.600098 224.931 7.28237 224.931 15.5321V52.9228C203.009 58.5686 182.343 67.2828 163.321 78.5161L136.832 52.0268C130.999 46.1934 121.545 46.1934 115.717 52.0268L52.3627 115.381C46.5293 121.215 46.5293 130.668 52.3627 136.496L78.852 162.985C67.6228 181.996 58.8987 202.673 53.2587 224.595L15.8627 224.6C7.61267 224.6 0.930664 231.282 0.930664 239.532V329.131C0.930664 337.381 7.61294 344.063 15.8627 344.063H53.2533C58.8992 365.984 67.6133 386.651 78.8467 405.672L52.3573 432.161C46.524 437.995 46.524 447.448 52.3573 453.276L115.712 516.631C121.545 522.464 130.999 522.464 136.827 516.631L163.316 490.141C182.327 501.37 203.004 510.095 224.925 515.735L224.931 553.136C224.931 561.386 231.613 568.068 239.863 568.068H329.461C337.711 568.068 344.393 561.386 344.393 553.136V515.745C366.315 510.099 386.981 501.385 406.003 490.152L432.492 516.641C438.325 522.475 447.779 522.475 453.607 516.641L516.961 453.287C522.795 447.453 522.795 438 516.961 432.172L490.472 405.683C501.701 386.672 510.425 365.995 516.065 344.073L553.467 344.068C561.717 344.068 568.399 337.386 568.399 329.136V239.532C568.399 231.282 561.716 224.6 553.467 224.6V224.6ZM213.093 333.512C218.927 339.345 218.927 348.799 213.093 354.627C210.177 357.543 206.354 359.002 202.531 359.002C198.708 359.002 194.885 357.543 191.973 354.627L132.239 294.892C126.405 289.059 126.405 279.605 132.239 273.777L191.973 214.043C197.796 208.209 207.265 208.209 213.088 214.043C218.921 219.876 218.921 229.329 213.088 235.157L163.921 284.335L213.093 333.512ZM328.4 215.215L268.665 364.548C266.327 370.387 260.717 373.934 254.801 373.934C252.947 373.934 251.077 373.59 249.26 372.861C241.598 369.798 237.879 361.111 240.942 353.449L300.677 204.115C303.739 196.454 312.427 192.735 320.089 195.798C327.74 198.865 331.458 207.553 328.401 215.214L328.4 215.215ZM437.093 294.892L377.359 354.627C374.447 357.543 370.624 359.002 366.801 359.002C362.978 359.002 359.155 357.543 356.244 354.627C350.411 348.793 350.411 339.34 356.244 333.512L405.411 284.335L356.244 235.157C350.411 229.324 350.411 219.871 356.244 214.043C362.067 208.209 371.536 208.209 377.359 214.043L437.093 273.777C442.921 279.611 442.921 289.059 437.093 294.892Z" fill="#D7DAE1"/>
</svg>
