<svg width="476" height="194" viewBox="0 0 476 194" fill="none" xmlns="http://www.w3.org/2000/svg">
<ellipse cx="366.916" cy="57.8746" rx="5.86478" ry="5.74912" fill="#8EA9A8"/>
<ellipse cx="366.916" cy="136.063" rx="5.86478" ry="5.74912" fill="#8EA9A8"/>
<ellipse cx="392.72" cy="57.8746" rx="5.86478" ry="5.74912" fill="#8EA9A8"/>
<ellipse cx="392.72" cy="136.063" rx="5.86478" ry="5.74912" fill="#8EA9A8"/>
<ellipse cx="418.525" cy="57.8746" rx="5.86478" ry="5.74912" fill="#8EA9A8"/>
<ellipse cx="418.525" cy="136.063" rx="5.86478" ry="5.74912" fill="#8EA9A8"/>
<ellipse cx="444.33" cy="57.8746" rx="5.86478" ry="5.74912" fill="#8EA9A8"/>
<ellipse cx="444.33" cy="136.063" rx="5.86478" ry="5.74912" fill="#8EA9A8"/>
<ellipse cx="470.135" cy="57.8746" rx="5.86478" ry="5.74912" fill="#8EA9A8"/>
<ellipse cx="470.135" cy="136.063" rx="5.86478" ry="5.74912" fill="#8EA9A8"/>
<ellipse cx="160.475" cy="5.74912" rx="5.86478" ry="5.74912" fill="#8EA9A8"/>
<ellipse cx="57.4751" cy="5.74912" rx="5.86478" ry="5.74912" fill="#8EA9A8"/>
<ellipse cx="134.669" cy="5.74912" rx="5.86478" ry="5.74912" fill="#8EA9A8"/>
<ellipse cx="31.6695" cy="5.74912" rx="5.86478" ry="5.74912" fill="#8EA9A8"/>
<ellipse cx="108.865" cy="5.74912" rx="5.86478" ry="5.74912" fill="#8EA9A8"/>
<ellipse cx="5.86478" cy="5.74912" rx="5.86478" ry="5.74912" fill="#8EA9A8"/>
<ellipse cx="186.28" cy="5.74912" rx="5.86478" ry="5.74912" fill="#8EA9A8"/>
<ellipse cx="83.2798" cy="5.74912" rx="5.86478" ry="5.74912" fill="#8EA9A8"/>
<ellipse cx="212.085" cy="5.74912" rx="5.86478" ry="5.74912" fill="#8EA9A8"/>
<ellipse cx="237.89" cy="5.74912" rx="5.86478" ry="5.74912" fill="#8EA9A8"/>
<ellipse cx="263.695" cy="5.74912" rx="5.86478" ry="5.74912" fill="#8EA9A8"/>
<ellipse cx="289.5" cy="5.74912" rx="5.86478" ry="5.74912" fill="#8EA9A8"/>
<ellipse cx="315.305" cy="5.74912" rx="5.86478" ry="5.74912" fill="#8EA9A8"/>
<ellipse cx="341.11" cy="5.74912" rx="5.86478" ry="5.74912" fill="#8EA9A8"/>
<ellipse cx="366.916" cy="5.74912" rx="5.86478" ry="5.74912" fill="#8EA9A8"/>
<ellipse cx="366.916" cy="83.9371" rx="5.86478" ry="5.74912" fill="#8EA9A8"/>
<ellipse cx="366.916" cy="162.125" rx="5.86478" ry="5.74912" fill="#8EA9A8"/>
<ellipse cx="392.72" cy="5.74912" rx="5.86478" ry="5.74912" fill="#8EA9A8"/>
<ellipse cx="392.72" cy="83.9371" rx="5.86478" ry="5.74912" fill="#8EA9A8"/>
<ellipse cx="392.72" cy="162.125" rx="5.86478" ry="5.74912" fill="#8EA9A8"/>
<ellipse cx="418.525" cy="5.74912" rx="5.86478" ry="5.74912" fill="#8EA9A8"/>
<ellipse cx="418.525" cy="83.9371" rx="5.86478" ry="5.74912" fill="#8EA9A8"/>
<ellipse cx="418.525" cy="162.125" rx="5.86478" ry="5.74912" fill="#8EA9A8"/>
<ellipse cx="444.33" cy="5.74912" rx="5.86478" ry="5.74912" fill="#8EA9A8"/>
<ellipse cx="444.33" cy="83.9371" rx="5.86478" ry="5.74912" fill="#8EA9A8"/>
<ellipse cx="444.33" cy="162.125" rx="5.86478" ry="5.74912" fill="#8EA9A8"/>
<ellipse cx="470.135" cy="5.74912" rx="5.86478" ry="5.74912" fill="#8EA9A8"/>
<ellipse cx="470.135" cy="83.9371" rx="5.86478" ry="5.74912" fill="#8EA9A8"/>
<ellipse cx="470.135" cy="162.125" rx="5.86478" ry="5.74912" fill="#8EA9A8"/>
<ellipse cx="160.475" cy="31.8116" rx="5.86478" ry="5.74912" fill="#8EA9A8"/>
<ellipse cx="57.4751" cy="31.8116" rx="5.86478" ry="5.74912" fill="#8EA9A8"/>
<ellipse cx="134.669" cy="31.8116" rx="5.86478" ry="5.74912" fill="#8EA9A8"/>
<ellipse cx="31.6695" cy="31.8116" rx="5.86478" ry="5.74912" fill="#8EA9A8"/>
<ellipse cx="108.865" cy="31.8116" rx="5.86478" ry="5.74912" fill="#8EA9A8"/>
<ellipse cx="5.86478" cy="31.8116" rx="5.86478" ry="5.74912" fill="#8EA9A8"/>
<ellipse cx="186.28" cy="31.8116" rx="5.86478" ry="5.74912" fill="#8EA9A8"/>
<ellipse cx="83.2798" cy="31.8116" rx="5.86478" ry="5.74912" fill="#8EA9A8"/>
<ellipse cx="212.085" cy="31.8116" rx="5.86478" ry="5.74912" fill="#8EA9A8"/>
<ellipse cx="237.89" cy="31.8116" rx="5.86478" ry="5.74912" fill="#8EA9A8"/>
<ellipse cx="263.695" cy="31.8116" rx="5.86478" ry="5.74912" fill="#8EA9A8"/>
<ellipse cx="289.5" cy="31.8116" rx="5.86478" ry="5.74912" fill="#8EA9A8"/>
<ellipse cx="315.305" cy="31.8116" rx="5.86478" ry="5.74912" fill="#8EA9A8"/>
<ellipse cx="341.11" cy="31.8116" rx="5.86478" ry="5.74912" fill="#8EA9A8"/>
<ellipse cx="366.916" cy="31.8116" rx="5.86478" ry="5.74912" fill="#8EA9A8"/>
<ellipse cx="366.916" cy="110" rx="5.86478" ry="5.74912" fill="#8EA9A8"/>
<ellipse cx="366.916" cy="188.188" rx="5.86478" ry="5.74912" fill="#8EA9A8"/>
<ellipse cx="392.72" cy="31.8116" rx="5.86478" ry="5.74912" fill="#8EA9A8"/>
<ellipse cx="392.72" cy="110" rx="5.86478" ry="5.74912" fill="#8EA9A8"/>
<ellipse cx="392.72" cy="188.188" rx="5.86478" ry="5.74912" fill="#8EA9A8"/>
<ellipse cx="418.525" cy="31.8116" rx="5.86478" ry="5.74912" fill="#8EA9A8"/>
<ellipse cx="418.525" cy="110" rx="5.86478" ry="5.74912" fill="#8EA9A8"/>
<ellipse cx="418.525" cy="188.188" rx="5.86478" ry="5.74912" fill="#8EA9A8"/>
<ellipse cx="444.33" cy="31.8116" rx="5.86478" ry="5.74912" fill="#8EA9A8"/>
<ellipse cx="444.33" cy="110" rx="5.86478" ry="5.74912" fill="#8EA9A8"/>
<ellipse cx="444.33" cy="188.188" rx="5.86478" ry="5.74912" fill="#8EA9A8"/>
<ellipse cx="470.135" cy="31.8116" rx="5.86478" ry="5.74912" fill="#8EA9A8"/>
<ellipse cx="470.135" cy="110" rx="5.86478" ry="5.74912" fill="#8EA9A8"/>
<ellipse cx="470.135" cy="188.188" rx="5.86478" ry="5.74912" fill="#8EA9A8"/>
</svg>
