<svg width="123" height="123" viewBox="0 0 123 123" fill="none" xmlns="http://www.w3.org/2000/svg">
<path fill-rule="evenodd" clip-rule="evenodd" d="M1.62994 97.9904L38.1799 61.4404L1.62994 24.8904C-0.540059 22.7204 -0.540059 19.1604 1.62994 16.9904L16.9899 1.63043C19.1599 -0.53957 22.7199 -0.53957 24.8899 1.63043L61.4399 38.1804L97.9899 1.63043C100.16 -0.53957 103.72 -0.53957 105.89 1.63043L121.25 16.9904C123.42 19.1604 123.42 22.7204 121.25 24.8904L84.6999 61.4404L121.25 97.9904C123.42 100.16 123.42 103.72 121.25 105.89L105.89 121.25C103.72 123.42 100.16 123.42 97.9899 121.25L61.4399 84.7004L24.8899 121.25C22.7199 123.42 19.1599 123.42 16.9899 121.25L1.62994 105.89C-0.540059 103.72 -0.540059 100.16 1.62994 97.9904Z" fill="#98BBBA"/>
</svg>
