<svg width="264" height="176" viewBox="0 0 264 176" fill="none" xmlns="http://www.w3.org/2000/svg">
<path d="M124.266 0.5H25.8281C11.9219 0.5 0.671875 11.8281 0.671875 25.6562V92.4531C0.671875 105.656 10.9062 116.594 23.9531 117.609V135.969C23.9531 138.312 25.3594 140.5 27.5469 141.359C28.25 141.672 29.0312 141.828 29.8125 141.828C31.375 141.828 32.8594 141.203 33.9531 140.109L56.375 117.688H114.578V126.203C114.578 140.109 125.906 151.438 139.813 151.438H207.781L230.203 173.859C231.297 174.953 232.859 175.578 234.344 175.578C235.125 175.578 235.828 175.422 236.609 175.109C238.797 174.172 240.203 172.063 240.203 169.719V151.281C253.172 150.266 263.484 139.406 263.484 126.125V59.3281C263.484 45.4219 252.156 34.0938 238.25 34.0938H149.5V25.5781C149.5 11.75 138.172 0.5 124.266 0.5ZM53.875 105.969C52.3125 105.969 50.8281 106.594 49.7344 107.688L35.5938 121.828V111.828C35.5938 108.625 32.9375 105.969 29.7344 105.969H25.8281C18.4062 105.969 12.3906 99.9531 12.3906 92.5312V25.7344C12.3906 18.3125 18.4062 12.2969 25.8281 12.2969H124.266C131.688 12.2969 137.703 18.3125 137.703 25.7344V92.5312C137.703 99.9531 131.688 105.969 124.266 105.969H53.875ZM238.172 45.8906C245.594 45.8906 251.688 51.9062 251.688 59.4062V126.203C251.688 133.625 245.672 139.719 238.172 139.719H234.266C231.063 139.719 228.406 142.375 228.406 145.578V155.578L214.266 141.437C213.172 140.344 211.688 139.719 210.125 139.719H139.734C132.312 139.719 126.219 133.703 126.219 126.203V117.609C139.188 116.594 149.422 105.734 149.422 92.5312V45.9687H238.172V45.8906Z" fill="#8EA9A8"/>
<path d="M75.2031 82.6094C73.6406 82.6094 72.1562 83.2344 71.0625 84.3281C69.9687 85.4219 69.3438 86.9062 69.3438 88.4688C69.3438 90.0312 69.9687 91.5156 71.0625 92.6094C72.1562 93.7031 73.6406 94.3281 75.2031 94.3281C76.7656 94.3281 78.25 93.7031 79.3438 92.6094C80.4375 91.5156 81.0625 90.0312 81.0625 88.4688C81.0625 86.9062 80.4375 85.4219 79.3438 84.3281C78.25 83.2344 76.7656 82.6094 75.2031 82.6094Z" fill="#8EA9A8"/>
<path d="M75.0469 23.8594C65.0469 23.8594 56.8438 31.9844 56.8438 42.0625V42.4531C56.8438 45.6563 59.5 48.3125 62.7031 48.3125C65.9062 48.3125 68.5625 45.6563 68.5625 42.4531V42.0625C68.5625 38.5469 71.4531 35.5781 75.0469 35.5781C78.6406 35.5781 81.5312 38.4688 81.5312 42.0625C81.5312 45.5 80.2031 48.7031 77.7813 51.125C72.3906 56.5156 69.4219 63.7031 69.4219 71.3594C69.4219 74.5625 72.0781 77.2188 75.2812 77.2188C78.4844 77.2188 81.1406 74.5625 81.1406 71.3594C81.1406 66.8281 82.8594 62.6094 86.0625 59.4062C90.6719 54.7969 93.25 48.625 93.25 42.0625C93.25 31.9844 85.0469 23.8594 75.0469 23.8594Z" fill="#8EA9A8"/>
</svg>
