<svg width="122" height="122" viewBox="0 0 122 122" fill="none" xmlns="http://www.w3.org/2000/svg">
<path d="M18.971 34.038C20.094 34.038 21.0043 33.1276 21.0043 32.0046C21.0043 30.8817 20.094 29.9713 18.971 29.9713C17.848 29.9713 16.9377 30.8817 16.9377 32.0046C16.9377 33.1276 17.848 34.038 18.971 34.038Z" fill="#8EA9A8"/>
<path d="M32.5333 34.038C33.6563 34.038 34.5667 33.1276 34.5667 32.0046C34.5667 30.8817 33.6563 29.9713 32.5333 29.9713C31.4104 29.9713 30.5 30.8817 30.5 32.0046C30.5 33.1276 31.4104 34.038 32.5333 34.038Z" fill="#8EA9A8"/>
<path d="M25.7623 34.038C26.8853 34.038 27.7957 33.1276 27.7957 32.0046C27.7957 30.8817 26.8853 29.9713 25.7623 29.9713C24.6394 29.9713 23.729 30.8817 23.729 32.0046C23.729 33.1276 24.6394 34.038 25.7623 34.038Z" fill="#8EA9A8"/>
<path d="M40.6667 61.5084L46.7667 55.4084C47.1496 55.0255 47.3647 54.5062 47.3647 53.9647C47.3647 53.4232 47.1496 52.9039 46.7667 52.521C46.3838 52.1381 45.8645 51.923 45.323 51.923C44.7815 51.923 44.2622 52.1381 43.8793 52.521L36.3153 60.1054C35.9366 60.4863 35.7241 61.0017 35.7241 61.5389C35.7241 62.076 35.9366 62.5914 36.3153 62.9724L43.8793 70.5567C44.0684 70.7473 44.2932 70.8985 44.541 71.0018C44.7888 71.105 45.0546 71.1581 45.323 71.1581C45.5914 71.1581 45.8572 71.105 46.105 71.0018C46.3528 70.8985 46.5776 70.7473 46.7667 70.5567C47.1454 70.1757 47.3579 69.6604 47.3579 69.1232C47.3579 68.586 47.1454 68.0707 46.7667 67.6897L40.6667 61.5084Z" fill="#8EA9A8"/>
<path d="M69.784 70.516C70.165 70.8947 70.6803 71.1073 71.2175 71.1073C71.7547 71.1073 72.27 70.8947 72.651 70.516L80.2353 63.0334C80.614 62.6524 80.8266 62.137 80.8266 61.5999C80.8266 61.0627 80.614 60.5473 80.2353 60.1664L72.651 52.582C72.2681 52.2018 71.7499 51.9893 71.2103 51.9912C70.6707 51.9931 70.154 52.2093 69.7738 52.5922C69.3936 52.9751 69.1811 53.4933 69.183 54.0329C69.1849 54.5724 69.4011 55.0892 69.784 55.4694L75.884 61.5694L69.784 67.6694C69.4114 68.0494 69.2028 68.5605 69.2028 69.0927C69.2028 69.6249 69.4114 70.1359 69.784 70.516Z" fill="#8EA9A8"/>
<path d="M63.0333 53.1717C62.8013 53.0372 62.5449 52.95 62.279 52.9151C62.0131 52.8802 61.7429 52.8982 61.4839 52.9681C61.225 53.038 60.9825 53.1585 60.7703 53.3225C60.5581 53.4866 60.3805 53.691 60.2477 53.924L52.7447 67.1C52.5975 67.3314 52.4988 67.5902 52.4543 67.8608C52.4097 68.1314 52.4204 68.4082 52.4857 68.6746C52.5509 68.941 52.6694 69.1914 52.8339 69.4108C52.9984 69.6302 53.2056 69.814 53.4431 69.9512C53.6805 70.0885 53.9432 70.1763 54.2154 70.2093C54.4877 70.2424 54.7638 70.2201 55.0272 70.1437C55.2905 70.0673 55.5357 69.9384 55.748 69.7647C55.9603 69.5911 56.1352 69.3763 56.2623 69.1333L63.8467 56.0183C63.9885 55.7801 64.0802 55.5153 64.116 55.2404C64.1518 54.9654 64.1309 54.686 64.0547 54.4194C63.9786 54.1527 63.8487 53.9045 63.673 53.6899C63.4974 53.4754 63.2797 53.299 63.0333 53.1717Z" fill="#8EA9A8"/>
<path d="M113.582 81.3333C113.462 81.3324 113.345 81.295 113.247 81.2259C113.149 81.1569 113.074 81.0596 113.033 80.947C112.224 78.8186 111.077 76.8345 109.637 75.0707C109.569 74.9721 109.533 74.8551 109.533 74.7352C109.533 74.6153 109.569 74.4983 109.637 74.3997C110.257 73.3263 110.425 72.0511 110.104 70.854C109.784 69.6568 109.002 68.6358 107.929 68.015L106.404 67.1V29.9713C106.404 28.3535 105.762 26.802 104.618 25.658C103.474 24.514 101.922 23.8713 100.304 23.8713H16.2667C14.6488 23.8713 13.0973 24.514 11.9533 25.658C10.8093 26.802 10.1667 28.3535 10.1667 29.9713V81.496C10.172 82.7509 10.6729 83.9528 11.5602 84.8401C12.4475 85.7275 13.6495 86.2283 14.9043 86.2337H42.7L40.6667 93.757H37.9623C35.9819 93.7584 34.0597 94.4274 32.5064 95.656C30.9531 96.8846 29.8594 98.6011 29.402 100.528H24.4C23.8607 100.528 23.3435 100.742 22.9622 101.124C22.5809 101.505 22.3667 102.022 22.3667 102.561C22.3667 103.101 22.5809 103.618 22.9622 103.999C23.3435 104.38 23.8607 104.595 24.4 104.595H76.189C76.1546 105.08 76.2027 105.569 76.3313 106.038C76.4838 106.635 76.7551 107.194 77.1289 107.684C77.5028 108.173 77.9715 108.581 78.507 108.885L82.7973 111.366C83.33 111.671 83.9177 111.869 84.5269 111.948C85.1361 112.027 85.7548 111.984 86.3477 111.824C86.9406 111.664 87.496 111.388 87.9823 111.013C88.4687 110.637 88.8763 110.17 89.182 109.637C89.2479 109.534 89.3426 109.451 89.4546 109.401C89.5666 109.35 89.691 109.334 89.8123 109.353C92.046 109.739 94.3294 109.739 96.563 109.353C96.6867 109.333 96.8135 109.351 96.9263 109.406C97.0391 109.46 97.1323 109.548 97.1933 109.658C97.6078 110.367 98.2019 110.955 98.9158 111.362C99.6297 111.769 100.438 111.981 101.26 111.976C102.08 111.984 102.887 111.773 103.598 111.366L107.889 108.885C108.421 108.578 108.888 108.168 109.261 107.679C109.635 107.191 109.908 106.633 110.064 106.038C110.226 105.447 110.268 104.83 110.188 104.222C110.108 103.614 109.907 103.029 109.597 102.5C109.527 102.399 109.489 102.278 109.489 102.155C109.489 102.031 109.527 101.911 109.597 101.809C111.032 100.05 112.178 98.0729 112.992 95.953C113.031 95.8387 113.105 95.7398 113.204 95.6703C113.303 95.6009 113.421 95.5646 113.541 95.5667C114.78 95.5613 115.966 95.0669 116.842 94.191C117.718 93.3151 118.213 92.1287 118.218 90.89V85.9287C118.197 84.7095 117.7 83.5468 116.834 82.6884C115.968 81.83 114.801 81.3438 113.582 81.3333ZM14.2333 29.9713C14.2333 29.4321 14.4476 28.9149 14.8289 28.5336C15.2102 28.1522 15.7274 27.938 16.2667 27.938H100.304C100.844 27.938 101.361 28.1522 101.742 28.5336C102.123 28.9149 102.338 29.4321 102.338 29.9713V36.0713H14.2333V29.9713ZM14.9043 82.167C14.8162 82.167 14.729 82.1496 14.6476 82.1159C14.5661 82.0822 14.4922 82.0328 14.4299 81.9705C14.3676 81.9082 14.3181 81.8342 14.2844 81.7528C14.2507 81.6714 14.2333 81.5841 14.2333 81.496V40.138H102.338V65.0667C101.375 64.8111 100.357 64.8707 99.4308 65.2366C98.505 65.6026 97.7208 66.2557 97.1933 67.1C97.13 67.2003 97.038 67.2792 96.9291 67.3263C96.8203 67.3735 96.6998 67.3867 96.5833 67.3643C94.348 66.9982 92.068 66.9982 89.8327 67.3643C89.7161 67.3897 89.5945 67.3779 89.4851 67.3305C89.3756 67.283 89.2838 67.2024 89.2227 67.1C88.9172 66.567 88.5093 66.0996 88.0225 65.7249C87.5356 65.3502 86.9794 65.0756 86.3859 64.9168C85.7924 64.7581 85.1734 64.7183 84.5645 64.7999C83.9556 64.8814 83.3688 65.0827 82.838 65.392L78.5477 67.8727C78.0135 68.1732 77.5455 68.5784 77.1717 69.064C76.7978 69.5497 76.5258 70.1058 76.372 70.699C76.0468 71.8978 76.2076 73.1764 76.8193 74.2573C76.8935 74.3534 76.9338 74.4714 76.9338 74.5928C76.9338 74.7143 76.8935 74.8322 76.8193 74.9283C75.3793 76.6921 74.2328 78.6763 73.4237 80.8047C73.3823 80.9173 73.3076 81.0146 73.2095 81.0836C73.1114 81.1526 72.9946 81.1901 72.8747 81.191C71.8788 81.1924 70.9095 81.5131 70.1093 82.106L14.9043 82.167ZM69.1333 93.757H44.7333L46.7667 86.2337H68.1167V90.89C68.1297 91.9317 68.4872 92.9398 69.1333 93.757ZM37.9827 97.8237H74.176C74.6408 98.7611 75.1707 99.6648 75.762 100.528H33.6923C34.0762 99.7201 34.6809 99.0374 35.4366 98.5589C36.1922 98.0803 37.0679 97.8254 37.9623 97.8237H37.9827ZM114.192 90.89C114.192 91.0518 114.128 91.2069 114.013 91.3213C113.899 91.4357 113.744 91.5 113.582 91.5C112.635 91.5024 111.711 91.791 110.93 92.328C110.15 92.8651 109.551 93.6254 109.21 94.5093C108.56 96.2237 107.641 97.8231 106.486 99.247C105.89 99.9826 105.531 100.881 105.455 101.824C105.378 102.768 105.589 103.712 106.059 104.534C106.091 104.604 106.108 104.68 106.108 104.757C106.108 104.835 106.091 104.911 106.059 104.981C106.041 105.062 106.006 105.138 105.957 105.204C105.908 105.271 105.846 105.326 105.774 105.367L101.545 107.767C101.474 107.806 101.396 107.831 101.316 107.84C101.236 107.849 101.154 107.842 101.077 107.819C100.999 107.796 100.927 107.758 100.864 107.708C100.801 107.657 100.749 107.594 100.711 107.523C100.23 106.703 99.5123 106.049 98.652 105.646C97.7916 105.243 96.8293 105.11 95.892 105.266C94.102 105.571 92.2733 105.571 90.4833 105.266C89.5439 105.112 88.5801 105.248 87.7195 105.655C86.8589 106.061 86.1422 106.72 85.6643 107.543C85.5799 107.679 85.4467 107.778 85.2918 107.82C85.1369 107.861 84.972 107.842 84.8307 107.767L80.5403 105.286C80.4685 105.245 80.406 105.19 80.3569 105.123C80.3079 105.057 80.2734 104.98 80.2557 104.9C80.223 104.83 80.206 104.753 80.206 104.676C80.206 104.599 80.223 104.522 80.2557 104.452C80.72 103.629 80.9274 102.686 80.8513 101.744C80.7752 100.802 80.4191 99.9037 79.8287 99.1657C78.6634 97.7454 77.7363 96.1453 77.0837 94.428C76.7426 93.5674 76.1517 92.8286 75.3871 92.3067C74.6224 91.7849 73.7191 91.5039 72.7933 91.5C72.6316 91.5 72.4764 91.4357 72.362 91.3213C72.2476 91.2069 72.1833 91.0518 72.1833 90.89V85.9287C72.1805 85.8478 72.1943 85.7672 72.224 85.6919C72.2536 85.6166 72.2985 85.5482 72.3557 85.491C72.4129 85.4338 72.4813 85.389 72.5566 85.3593C72.6319 85.3297 72.7125 85.3158 72.7933 85.3187C73.7377 85.315 74.6588 85.0256 75.4354 84.4885C76.2121 83.9513 76.808 83.1916 77.1447 82.3093C77.7927 80.5898 78.7202 78.9891 79.8897 77.5717C80.4801 76.8336 80.8362 75.9358 80.9123 74.9937C80.9884 74.0516 80.781 73.1083 80.3167 72.285C80.2836 72.2115 80.2664 72.1318 80.2664 72.0512C80.2664 71.9706 80.2836 71.8908 80.3167 71.8173C80.3332 71.7387 80.3674 71.6649 80.4167 71.6015C80.4661 71.538 80.5292 71.4867 80.6013 71.4513L84.8917 68.9707C84.9914 68.9429 85.0969 68.9429 85.1967 68.9707C85.2984 68.972 85.3982 68.9987 85.487 69.0484C85.5758 69.0981 85.6507 69.1693 85.705 69.2553C86.185 70.0765 86.9021 70.7334 87.762 71.1398C88.622 71.5462 89.5848 71.6832 90.524 71.5327C92.314 71.2277 94.1427 71.2277 95.9327 71.5327C96.8781 71.6603 97.8401 71.4996 98.6927 71.0715C99.5452 70.6434 100.249 69.9679 100.711 69.1333C100.751 69.0663 100.803 69.0077 100.866 68.9612C100.928 68.9146 101 68.8809 101.075 68.862C101.151 68.843 101.23 68.8393 101.307 68.851C101.384 68.8627 101.458 68.8895 101.524 68.93L105.815 71.4107C105.887 71.446 105.95 71.4974 105.999 71.5608C106.049 71.6242 106.083 71.698 106.099 71.7767C106.132 71.8502 106.15 71.9299 106.15 72.0105C106.15 72.0911 106.132 72.1708 106.099 72.2443C105.631 73.0629 105.422 74.0038 105.498 74.9436C105.574 75.8834 105.933 76.7782 106.526 77.5107C107.682 78.9418 108.601 80.5479 109.251 82.2687C109.572 83.1674 110.157 83.9478 110.93 84.5068C111.704 85.0659 112.628 85.3773 113.582 85.4C113.663 85.3972 113.743 85.411 113.819 85.4406C113.894 85.4703 113.962 85.5151 114.02 85.5723C114.077 85.6296 114.122 85.698 114.151 85.7732C114.181 85.8485 114.195 85.9291 114.192 86.01V90.89Z" fill="#8EA9A8"/>
<path d="M93.1877 79.178C91.3619 79.178 89.5771 79.7194 88.059 80.7337C86.5409 81.7481 85.3577 83.1898 84.659 84.8766C83.9603 86.5634 83.7775 88.4196 84.1337 90.2103C84.4899 92.001 85.3691 93.6458 86.6601 94.9369C87.9512 96.2279 89.596 97.1071 91.3867 97.4633C93.1774 97.8195 95.0335 97.6367 96.7203 96.938C98.4072 96.2393 99.8489 95.0561 100.863 93.538C101.878 92.0199 102.419 90.2351 102.419 88.4093C102.419 85.961 101.446 83.613 99.7152 81.8818C97.984 80.1506 95.636 79.178 93.1877 79.178ZM93.1877 93.574C92.1662 93.574 91.1677 93.2711 90.3183 92.7036C89.469 92.1361 88.807 91.3295 88.4161 90.3857C88.0252 89.442 87.923 88.4036 88.1222 87.4017C88.3215 86.3999 88.8134 85.4796 89.5357 84.7573C90.258 84.0351 91.1782 83.5432 92.1801 83.3439C93.1819 83.1446 94.2204 83.2469 95.1641 83.6378C96.1078 84.0287 96.9144 84.6907 97.4819 85.54C98.0494 86.3893 98.3523 87.3878 98.3523 88.4093C98.3416 89.772 97.7927 91.0752 96.8253 92.035C95.8579 92.9948 94.5504 93.5334 93.1877 93.5333V93.574Z" fill="#8EA9A8"/>
</svg>
