<svg width="449" height="328" viewBox="0 0 449 328" fill="none" xmlns="http://www.w3.org/2000/svg">
<path d="M422.31 10H172.08L195.041 56.668H430.331C436.679 56.668 442.651 58.2539 447.878 61.0547C448.624 59.7461 448.999 58.2539 448.999 56.668V36.695C448.999 21.945 437.054 10 422.308 10H422.31Z" fill="#8EA9A8"/>
<path d="M430.33 75.3302H183.37L148.745 4.86521C147.066 2.25191 144.077 0.666016 140.999 0.666016H19.6592C9.39322 0.666016 0.991211 9.06441 0.991211 19.334V308.664C0.991211 318.93 9.38962 327.332 19.6592 327.332H430.329C440.595 327.332 448.997 318.934 448.997 308.664V93.994C448.993 83.728 440.595 75.326 430.325 75.326L430.33 75.3302Z" fill="#8EA9A8"/>
</svg>
