<svg width="747" height="587" viewBox="0 0 747 587" fill="none" xmlns="http://www.w3.org/2000/svg">
<path d="M27.3543 0.291992H26.9793C12.2553 0.291992 0.333984 12.2139 0.333984 26.9373C0.333984 41.6608 12.2559 53.5827 26.9793 53.5827H27.3752H719.975H720.35C735.074 53.5827 746.996 41.6608 746.996 26.9373C746.996 12.2139 735.074 0.291992 720.35 0.291992H719.954H27.3543ZM27.3543 266.692H26.9793C12.2553 266.692 0.333984 278.614 0.333984 293.337C0.333984 308.061 12.2559 319.983 26.9793 319.983H27.3752H719.975H720.35C735.074 319.983 746.996 308.061 746.996 293.337C746.996 278.614 735.074 266.692 720.35 266.692H719.954H27.3543ZM27.3543 533.092H26.9793C12.2553 533.092 0.333984 545.014 0.333984 559.737C0.333984 574.461 12.2559 586.383 26.9793 586.383H27.3752H719.975H720.35C735.074 586.383 746.996 574.461 746.996 559.737C746.996 545.014 735.074 533.092 720.35 533.092H719.954H27.3543Z" fill="#98BBBA"/>
</svg>
