<svg width="17" height="17" viewBox="0 0 17 17" fill="none" xmlns="http://www.w3.org/2000/svg">
<g clip-path="url(#clip0_413_20)">
<path d="M16.9922 5.5086C16.9295 4.33705 16.4335 3.23687 15.5954 2.41072C14.7466 1.57407 13.639 1.11328 12.4768 1.11328C10.7471 1.11328 9.49354 2.48086 8.82009 3.21563C8.71612 3.32909 8.59428 3.46201 8.50947 3.54311C8.44158 3.47286 8.34958 3.3681 8.26494 3.27177C7.64989 2.57118 6.36987 1.11334 4.52363 1.11334C3.3614 1.11334 2.25386 1.57412 1.40507 2.41078C0.566897 3.23687 0.0707598 4.33699 0.00804016 5.5086C-0.0543985 6.67825 0.244756 7.69598 0.978059 8.80869C1.55827 9.68929 3.0881 11.4089 4.69824 12.9904C5.52759 13.8051 6.29091 14.4954 6.90563 14.9869C7.90386 15.785 8.28619 15.8873 8.50767 15.8873C8.71533 15.8873 9.10806 15.7942 10.1158 14.9892C10.7292 14.4993 11.4898 13.81 12.3157 12.9958C13.9114 11.4228 15.4357 9.70093 16.0225 8.80852C16.516 8.05785 17.0722 7.00449 16.9922 5.5086Z" fill="#8EA9A8"/>
</g>
<defs>
<clipPath id="clip0_413_20">
<rect width="17" height="17" fill="white"/>
</clipPath>
</defs>
</svg>
