<svg width="67" height="69" viewBox="0 0 67 69" fill="none" xmlns="http://www.w3.org/2000/svg">
<path d="M58.3228 35.4626C58.3228 34.3561 58.7445 33.2478 59.5898 32.4033C61.2796 30.7122 64.0348 30.6973 65.7251 32.3879C67.4149 34.0777 67.4298 36.8027 65.7405 38.4915L65.7102 38.5218C64.0201 40.2129 61.2796 40.2129 59.5898 38.5218C58.7454 37.6778 58.3228 36.569 58.3228 35.4625L58.3228 35.4626Z" fill="#8EA9A8"/>
<path d="M38.869 54.9156C38.869 53.8106 39.2873 52.7094 40.1269 51.8636L40.1919 51.7987C41.8768 50.1036 44.6162 50.0945 46.3122 51.7799C48.0073 53.4615 48.0164 56.2034 46.3315 57.8993L46.2675 57.9662C44.5825 59.6607 41.8432 59.6689 40.1471 57.9849C39.296 57.141 38.869 56.0269 38.869 54.9155L38.869 54.9156ZM48.5967 45.1879C48.5967 44.0824 49.0184 42.9736 49.8637 42.1286L49.9277 42.0637C51.6179 40.3739 54.3583 40.3739 56.0481 42.0637C57.7379 43.7535 57.7379 46.4948 56.0481 48.1831L55.9841 48.2485C54.294 49.9387 51.5545 49.9387 49.8637 48.2485C49.0194 47.4051 48.5967 46.2958 48.5967 45.1879V45.1879Z" fill="#8EA9A8"/>
<path d="M29.1691 64.5848C29.1691 63.4793 29.5869 62.3728 30.428 61.5323C31.6777 60.2826 33.4916 59.9484 35.0351 60.5408C35.5992 60.7494 36.1262 61.0798 36.5802 61.5323C38.269 63.2211 38.2844 65.946 36.5956 67.6358L36.5653 67.668C34.8751 69.3578 32.1347 69.3578 30.4439 67.668C29.5942 66.8203 29.1692 65.7027 29.1692 64.5847L29.1691 64.5848Z" fill="#8EA9A8"/>
<path d="M9.69373 45.124C9.69373 44.0171 10.1155 42.9077 10.9608 42.0647C12.6506 40.3736 15.3919 40.3736 17.0817 42.0647L17.1452 42.1297C18.8363 43.818 18.8363 46.5608 17.1452 48.2491C15.4554 49.9389 12.7155 49.9389 11.0258 48.2491L10.9608 48.1842C10.1155 47.3393 9.69377 46.2299 9.69377 45.124H9.69373ZM19.4196 54.8499C19.4196 53.7444 19.8408 52.6351 20.6862 51.7906C22.3763 50.1008 25.1173 50.1008 26.807 51.7906L26.8724 51.8541C28.5607 53.5429 28.5607 56.2852 26.8724 57.9735C25.1827 59.6636 22.4413 59.6636 20.7502 57.9735L20.6862 57.91C19.8423 57.0661 19.4197 55.9586 19.4197 54.8499H19.4196Z" fill="#8EA9A8"/>
<path d="M-0.000342425 35.4316C-0.000342425 34.3261 0.42089 33.2168 1.26721 32.3724C2.956 30.6812 5.69632 30.6812 7.38659 32.3724C9.07674 34.0622 9.09262 36.8155 7.40198 38.5047C5.71084 40.1968 2.9858 40.2122 1.29749 38.5201L1.2672 38.4898C0.422815 37.6464 -0.000349939 36.5389 -0.000349939 35.4315L-0.000342425 35.4316Z" fill="#8EA9A8"/>
<path d="M59.1876 21.7571C59.1876 20.8714 59.5261 19.9847 60.2017 19.309C61.5534 17.9574 63.761 17.942 65.1132 19.2937C66.4634 20.6449 66.4793 22.8227 65.1286 24.1743L65.0983 24.2046C63.7466 25.5572 61.5543 25.5572 60.2017 24.2046C59.5261 23.5295 59.1876 22.6432 59.1876 21.757L59.1876 21.7571Z" fill="#8EA9A8"/>
<path d="M39.7345 41.2099C39.7345 40.3289 40.0702 39.4446 40.741 38.771L40.8064 38.7042C42.1542 37.3468 44.345 37.34 45.702 38.6898C47.0581 40.0376 47.0662 42.2289 45.7174 43.5854L45.6535 43.6523C44.3056 45.0088 42.1144 45.016 40.7578 43.6677C40.0764 42.9887 39.7345 42.1001 39.7345 41.21L39.7345 41.2099ZM49.4619 31.4835C49.4619 30.5978 49.7994 29.7111 50.476 29.0354L50.5399 28.9715C51.8926 27.6189 54.0839 27.6189 55.4365 28.9715C56.7881 30.3218 56.7881 32.5164 55.4365 33.8672L55.3725 33.9311C54.0209 35.2824 51.8286 35.2824 50.476 33.9311C49.8004 33.2569 49.4619 32.3702 49.4619 31.4835Z" fill="#8EA9A8"/>
<path d="M30.0355 50.8802C30.0355 49.9944 30.3683 49.1121 31.0415 48.4394C32.0417 47.4392 33.4949 47.1723 34.7302 47.6474C35.1832 47.8133 35.6058 48.0787 35.9698 48.4394C37.3201 49.7925 37.3355 51.9693 35.9852 53.32L35.9549 53.3512C34.6033 54.7029 32.41 54.7029 31.0579 53.3512C30.376 52.6704 30.0356 51.7736 30.0356 50.8802L30.0355 50.8802Z" fill="#8EA9A8"/>
<path d="M10.5583 31.4207C10.5583 30.5384 10.8935 29.656 11.5628 28.9804C12.9126 27.6243 15.1048 27.6167 16.4598 28.9645L16.5252 29.0285C17.8813 30.3768 17.8889 32.5686 16.5406 33.925C15.1928 35.2811 13.0005 35.2877 11.6436 33.9409L11.5787 33.8769C10.8973 33.2004 10.5583 32.3107 10.5583 31.4207V31.4207ZM20.2841 41.1466C20.2841 40.2623 20.6212 39.3755 21.2968 38.6985C22.6509 37.3459 24.8441 37.3459 26.1939 38.6985L26.2588 38.7634C27.6091 40.115 27.6091 42.3093 26.2588 43.6599C24.9062 45.0126 22.7134 45.0126 21.3618 43.6599L21.2954 43.5945C20.6212 42.9194 20.2842 42.0323 20.2842 41.1465L20.2841 41.1466Z" fill="#8EA9A8"/>
<path d="M0.86521 21.7282C0.86521 20.8424 1.20229 19.9558 1.87934 19.2801C3.23196 17.9275 5.42424 17.9275 6.77587 19.2801C8.1275 20.6314 8.14203 22.8394 6.7903 24.1911C5.43768 25.5428 3.26227 25.5587 1.90965 24.2065L1.87935 24.1753C1.20231 23.4997 0.865217 22.6134 0.865217 21.7282L0.86521 21.7282Z" fill="#8EA9A8"/>
<path d="M60.0552 11.1193C60.0552 10.4547 60.3082 9.79015 60.8155 9.28335C61.8286 8.26873 63.4881 8.25335 64.5012 9.26796C65.5144 10.2802 65.5317 11.9098 64.5166 12.9244L64.4863 12.9547C63.4731 13.9688 61.8286 13.9688 60.815 12.9547C60.3081 12.4483 60.0552 11.7838 60.0552 11.1193L60.0552 11.1193Z" fill="#8EA9A8"/>
<path d="M40.6011 30.5729C40.6011 29.9083 40.8549 29.2438 41.3623 28.7369L41.4262 28.673C42.4403 27.6589 44.0839 27.6589 45.0975 28.673C46.1117 29.6871 46.1117 31.3307 45.0975 32.3443L45.0336 32.4083C44.0194 33.4224 42.3759 33.4224 41.3623 32.4083C40.8545 31.9014 40.6011 31.2369 40.6011 30.5729ZM50.3279 20.8455C50.3279 20.181 50.5808 19.5169 51.0881 19.0096L51.153 18.9457C52.1662 17.9315 53.8108 17.9315 54.8244 18.9457C55.8385 19.9598 55.8385 21.6034 54.8244 22.617L54.7594 22.6809C53.7463 23.6951 52.1017 23.6951 51.0881 22.6809C50.5808 22.1746 50.3279 21.51 50.3279 20.8455V20.8455Z" fill="#8EA9A8"/>
<path d="M30.8995 40.242C30.8995 39.5789 31.1486 38.9177 31.6521 38.4147C32.4041 37.6627 33.4953 37.4593 34.4228 37.8184C34.7633 37.9454 35.0821 38.1425 35.3547 38.4147C36.3679 39.4274 36.3852 41.0575 35.3701 42.0716L35.3398 42.1019C34.3266 43.1165 32.6831 43.1165 31.6685 42.1019C31.1554 41.5903 30.8996 40.9161 30.8996 40.242L30.8995 40.242Z" fill="#8EA9A8"/>
<path d="M11.4238 20.7817C11.4238 20.1201 11.6749 19.4579 12.1793 18.9521C13.19 17.9346 14.8332 17.9293 15.8506 18.9406L15.9145 19.0045C16.9325 20.0153 16.9369 21.6598 15.9285 22.6758C14.9173 23.6933 13.2722 23.6981 12.2562 22.6874L12.1908 22.6234C11.6787 22.1171 11.4238 21.4492 11.4238 20.7817H11.4238ZM21.1502 30.5086C21.1502 29.844 21.4041 29.1795 21.9114 28.6727C22.9255 27.6585 24.5691 27.6585 25.5812 28.6727L25.6476 28.7366C26.6617 29.7508 26.6617 31.3943 25.6476 32.4079C24.6335 33.4221 22.9899 33.4221 21.9763 32.4079L21.9114 32.344C21.4036 31.8376 21.1502 31.1731 21.1502 30.5086H21.1502Z" fill="#8EA9A8"/>
<path d="M1.73224 11.09C1.73224 10.4255 1.98469 9.76092 2.49344 9.25412C3.50806 8.23951 5.15018 8.23951 6.16428 9.25412C7.1789 10.2668 7.19332 11.9277 6.17967 12.9408C5.1641 13.955 3.53733 13.9699 2.52274 12.9562L2.49149 12.9259C1.98466 12.4186 1.7322 11.7541 1.7322 11.09L1.73224 11.09Z" fill="#8EA9A8"/>
<path d="M60.9187 1.76149C60.9187 1.31814 61.0875 0.875755 61.4255 0.537712C62.1016 -0.138376 63.2129 -0.153763 63.8885 0.522806C64.5641 1.19697 64.5804 2.27944 63.9039 2.9555L63.8741 2.98483C63.1994 3.66044 62.1025 3.66044 61.426 2.98483C61.0884 2.64727 60.9187 2.20391 60.9187 1.76153L60.9187 1.76149Z" fill="#8EA9A8"/>
<path d="M41.466 21.215C41.466 20.7735 41.6329 20.3326 41.9685 19.9955L42.0325 19.9301C42.7066 19.2516 43.802 19.2478 44.4805 19.9219C45.1581 20.5966 45.1624 21.6935 44.4887 22.37L44.4238 22.4349C43.7496 23.1139 42.6542 23.1173 41.9757 22.4431C41.6358 22.1046 41.466 21.6593 41.466 21.215L41.466 21.215ZM51.1924 11.4886C51.1924 11.0453 51.3611 10.6029 51.6997 10.2649L51.7646 10.1999C52.4402 9.52385 53.5361 9.52385 54.2127 10.1999C54.8887 10.876 54.8887 11.9715 54.2127 12.648L54.1477 12.7129C53.4721 13.389 52.3762 13.389 51.6997 12.7129C51.3611 12.3739 51.1924 11.9311 51.1924 11.4887V11.4886Z" fill="#8EA9A8"/>
<path d="M31.7641 30.8846C31.7641 30.4422 31.9295 30.0022 32.2646 29.6685C32.7671 29.1631 33.4971 29.0275 34.1164 29.2708C34.3458 29.353 34.5603 29.4853 34.743 29.6685C35.4186 30.3431 35.4349 31.4255 34.7584 32.1007L34.7281 32.131C34.0534 32.8066 32.9557 32.8066 32.28 32.131C31.9367 31.7896 31.764 31.3366 31.764 30.8846L31.7641 30.8846Z" fill="#8EA9A8"/>
<path d="M12.2891 11.4237C12.2891 10.9804 12.4589 10.5385 12.796 10.1999C13.4706 9.52385 14.567 9.52385 15.2445 10.1999L15.3094 10.2649C15.9841 10.9409 15.9841 12.0359 15.3094 12.7129C14.6338 13.389 13.5366 13.389 12.8614 12.7129L12.796 12.648C12.4594 12.309 12.2891 11.8666 12.2891 11.4238L12.2891 11.4237ZM22.0155 21.1506C22.0155 20.7072 22.1852 20.2648 22.5228 19.9268C23.1974 19.2507 24.2952 19.2507 24.9709 19.9268L25.0363 19.9907C25.7119 20.6663 25.7119 21.7623 25.0363 22.4388C24.3607 23.1144 23.2634 23.1144 22.5882 22.4388L22.5228 22.3749C22.1847 22.0363 22.0155 21.5935 22.0155 21.1506V21.1506Z" fill="#8EA9A8"/>
<path d="M2.59718 1.73085C2.59718 1.28749 2.76548 0.84511 3.10305 0.507066C3.7777 -0.169022 4.87409 -0.169022 5.55114 0.507066C6.22579 1.18171 6.24261 2.29447 5.56652 2.97004C4.89043 3.64565 3.80952 3.66056 3.13382 2.98543L3.10353 2.95514C2.76548 2.61613 2.59718 2.17326 2.59718 1.73087V1.73085Z" fill="#8EA9A8"/>
</svg>
