<svg width="533" height="448" viewBox="0 0 533 448" fill="none" xmlns="http://www.w3.org/2000/svg">
<path d="M330.407 327.138C365.786 310.011 425.728 323.5 451.836 306.56C477.944 289.62 498.974 265.59 501.995 238.172C504.664 210.903 489.93 180.382 457.155 167.712C424.683 155.11 374.474 160.429 338.062 137.112C301.601 114.013 279.191 62.5632 244.153 41.6134C209.418 20.732 141.604 25.8804 105.03 45.4789C68.4553 65.0774 42.1628 94.0847 63.1402 123.734C84.4696 153.234 173.42 188.281 182.702 226.022C191.935 263.98 142.202 309.389 142.386 342.33C142.923 375.123 194.031 395.368 239.019 393.437C284.007 391.506 295.077 344.048 330.407 327.138Z" fill="#CDE8E7" fill-opacity="0.4"/>
<rect x="152.901" y="98.8101" width="256.114" height="185.906" rx="21" fill="#333333"/>
<path d="M152.901 254.248H409.555V271.716C409.555 278.896 403.734 284.716 396.555 284.716H165.901C158.722 284.716 152.901 278.896 152.901 271.716V254.248Z" fill="#EEECEC"/>
<ellipse cx="280.951" cy="268.966" rx="5.66147" ry="5.42225" fill="#292929"/>
<rect x="166.328" y="112.236" width="229.8" height="129.618" fill="#3B4250" fill-opacity="0.8"/>
<rect x="166.328" y="111.72" width="229.8" height="9.29529" fill="#515969"/>
<rect x="185.952" y="269.224" width="29.4351" height="26.8531" fill="#E8CE8B"/>
<line x1="190.083" y1="275.687" x2="207.124" y2="275.687" stroke="black" stroke-width="0.5"/>
<line x1="190.083" y1="280.334" x2="200.411" y2="280.334" stroke="black" stroke-width="0.5"/>
<path d="M177.16 128.499H178.015V128.484C178.015 128.401 178.037 128.34 178.081 128.299C178.126 128.258 178.193 128.238 178.281 128.238C178.352 128.238 178.408 128.258 178.447 128.299C178.486 128.338 178.505 128.394 178.505 128.467V128.499L178.486 128.877C178.483 128.952 178.47 129 178.449 129.019C178.43 129.039 178.394 129.048 178.342 129.048H176.587C176.492 129.048 176.419 129.028 176.367 128.987C176.316 128.947 176.291 128.889 176.291 128.814C176.291 128.752 176.307 128.692 176.337 128.633C176.37 128.573 176.421 128.51 176.491 128.443L177.485 127.483C177.592 127.379 177.672 127.275 177.724 127.171C177.778 127.067 177.805 126.963 177.805 126.858C177.805 126.712 177.769 126.603 177.697 126.531C177.627 126.46 177.52 126.424 177.375 126.424C177.29 126.424 177.215 126.437 177.148 126.463C177.083 126.487 177.032 126.522 176.997 126.568C176.977 126.591 176.954 126.626 176.926 126.673C176.848 126.8 176.761 126.863 176.667 126.863C176.586 126.863 176.524 126.836 176.482 126.783C176.441 126.729 176.421 126.649 176.421 126.543C176.421 126.434 176.434 126.353 176.46 126.299C176.486 126.246 176.538 126.192 176.616 126.138C176.743 126.054 176.876 125.991 177.016 125.95C177.158 125.91 177.311 125.889 177.475 125.889C177.783 125.889 178.026 125.972 178.205 126.138C178.386 126.304 178.476 126.527 178.476 126.807C178.476 126.994 178.429 127.174 178.335 127.347C178.242 127.518 178.097 127.688 177.9 127.859L177.16 128.499ZM180.988 126.438C180.815 126.438 180.679 126.533 180.578 126.722C180.478 126.91 180.429 127.171 180.429 127.503C180.429 127.84 180.478 128.104 180.578 128.294C180.677 128.483 180.814 128.577 180.988 128.577C181.162 128.577 181.299 128.483 181.398 128.294C181.499 128.104 181.549 127.84 181.549 127.503C181.549 127.171 181.499 126.91 181.398 126.722C181.299 126.533 181.162 126.438 180.988 126.438ZM180.983 125.889C181.357 125.889 181.654 126.035 181.874 126.326C182.094 126.616 182.204 127.01 182.204 127.508C182.204 128.007 182.094 128.403 181.874 128.694C181.654 128.984 181.357 129.129 180.983 129.129C180.612 129.129 180.317 128.984 180.099 128.694C179.883 128.403 179.775 128.007 179.775 127.508C179.775 127.008 179.883 126.613 180.099 126.324C180.317 126.034 180.612 125.889 180.983 125.889Z" fill="#575364"/>
<path d="M177.16 135.212H178.015V135.198C178.015 135.115 178.037 135.053 178.081 135.012C178.126 134.972 178.193 134.951 178.281 134.951C178.352 134.951 178.408 134.972 178.447 135.012C178.486 135.051 178.505 135.107 178.505 135.181V135.212L178.486 135.591C178.483 135.666 178.47 135.713 178.449 135.732C178.43 135.752 178.394 135.762 178.342 135.762H176.587C176.492 135.762 176.419 135.741 176.367 135.701C176.316 135.66 176.291 135.602 176.291 135.527C176.291 135.465 176.307 135.405 176.337 135.347C176.37 135.286 176.421 135.223 176.491 135.156L177.485 134.197C177.592 134.093 177.672 133.988 177.724 133.884C177.778 133.78 177.805 133.676 177.805 133.572C177.805 133.425 177.769 133.316 177.697 133.245C177.627 133.173 177.52 133.137 177.375 133.137C177.29 133.137 177.215 133.15 177.148 133.176C177.083 133.201 177.032 133.236 176.997 133.281C176.977 133.304 176.954 133.339 176.926 133.386C176.848 133.513 176.761 133.577 176.667 133.577C176.586 133.577 176.524 133.55 176.482 133.496C176.441 133.442 176.421 133.363 176.421 133.257C176.421 133.148 176.434 133.066 176.46 133.013C176.486 132.959 176.538 132.905 176.616 132.852C176.743 132.767 176.876 132.704 177.016 132.664C177.158 132.623 177.311 132.603 177.475 132.603C177.783 132.603 178.026 132.686 178.205 132.852C178.386 133.018 178.476 133.241 178.476 133.521C178.476 133.708 178.429 133.888 178.335 134.06C178.242 134.231 178.097 134.402 177.9 134.573L177.16 135.212ZM181.359 135.242H181.754C181.864 135.242 181.942 135.262 181.991 135.303C182.04 135.343 182.065 135.41 182.065 135.503C182.065 135.594 182.041 135.66 181.994 135.701C181.947 135.741 181.867 135.762 181.754 135.762H180.314C180.202 135.762 180.122 135.741 180.075 135.701C180.028 135.66 180.004 135.594 180.004 135.503C180.004 135.41 180.028 135.343 180.075 135.303C180.124 135.262 180.203 135.242 180.314 135.242H180.768V133.181L180.495 133.252C180.452 133.262 180.417 133.269 180.39 133.274C180.362 133.279 180.342 133.281 180.329 133.281C180.262 133.281 180.21 133.26 180.172 133.218C180.137 133.175 180.119 133.115 180.119 133.037C180.119 132.98 180.139 132.932 180.18 132.893C180.22 132.854 180.283 132.824 180.368 132.803L180.973 132.637C181.024 132.624 181.065 132.614 181.098 132.607C181.13 132.601 181.157 132.598 181.178 132.598C181.243 132.598 181.29 132.616 181.317 132.651C181.345 132.687 181.359 132.747 181.359 132.832V135.242Z" fill="#575364"/>
<path d="M177.16 141.926H178.015V141.911C178.015 141.828 178.037 141.766 178.081 141.726C178.126 141.685 178.193 141.665 178.281 141.665C178.352 141.665 178.408 141.685 178.447 141.726C178.486 141.765 178.505 141.821 178.505 141.894V141.926L178.486 142.304C178.483 142.379 178.47 142.426 178.449 142.446C178.43 142.465 178.394 142.475 178.342 142.475H176.587C176.492 142.475 176.419 142.455 176.367 142.414C176.316 142.373 176.291 142.316 176.291 142.241C176.291 142.179 176.307 142.119 176.337 142.06C176.37 142 176.421 141.936 176.491 141.87L177.485 140.91C177.592 140.806 177.672 140.702 177.724 140.598C177.778 140.493 177.805 140.389 177.805 140.285C177.805 140.139 177.769 140.03 177.697 139.958C177.627 139.886 177.52 139.851 177.375 139.851C177.29 139.851 177.215 139.864 177.148 139.89C177.083 139.914 177.032 139.949 176.997 139.995C176.977 140.017 176.954 140.052 176.926 140.1C176.848 140.227 176.761 140.29 176.667 140.29C176.586 140.29 176.524 140.263 176.482 140.209C176.441 140.156 176.421 140.076 176.421 139.97C176.421 139.861 176.434 139.78 176.46 139.726C176.486 139.672 176.538 139.619 176.616 139.565C176.743 139.48 176.876 139.418 177.016 139.377C177.158 139.336 177.311 139.316 177.475 139.316C177.783 139.316 178.026 139.399 178.205 139.565C178.386 139.731 178.476 139.954 178.476 140.234C178.476 140.421 178.429 140.601 178.335 140.773C178.242 140.944 178.097 141.115 177.9 141.286L177.16 141.926ZM180.663 141.926H181.518V141.911C181.518 141.828 181.54 141.766 181.584 141.726C181.629 141.685 181.696 141.665 181.784 141.665C181.855 141.665 181.911 141.685 181.95 141.726C181.989 141.765 182.008 141.821 182.008 141.894V141.926L181.989 142.304C181.986 142.379 181.973 142.426 181.952 142.446C181.933 142.465 181.897 142.475 181.845 142.475H180.089C179.995 142.475 179.922 142.455 179.87 142.414C179.819 142.373 179.794 142.316 179.794 142.241C179.794 142.179 179.809 142.119 179.84 142.06C179.873 142 179.924 141.936 179.994 141.87L180.988 140.91C181.095 140.806 181.175 140.702 181.227 140.598C181.281 140.493 181.308 140.389 181.308 140.285C181.308 140.139 181.272 140.03 181.2 139.958C181.13 139.886 181.023 139.851 180.878 139.851C180.793 139.851 180.718 139.864 180.651 139.89C180.586 139.914 180.535 139.949 180.5 139.995C180.48 140.017 180.456 140.052 180.429 140.1C180.351 140.227 180.264 140.29 180.17 140.29C180.089 140.29 180.027 140.263 179.984 140.209C179.944 140.156 179.923 140.076 179.923 139.97C179.923 139.861 179.936 139.78 179.962 139.726C179.989 139.672 180.041 139.619 180.119 139.565C180.246 139.48 180.379 139.418 180.519 139.377C180.661 139.336 180.814 139.316 180.978 139.316C181.286 139.316 181.529 139.399 181.708 139.565C181.889 139.731 181.979 139.954 181.979 140.234C181.979 140.421 181.932 140.601 181.837 140.773C181.745 140.944 181.6 141.115 181.403 141.286L180.663 141.926Z" fill="#575364"/>
<path d="M177.16 148.639H178.015V148.624C178.015 148.541 178.037 148.479 178.081 148.438C178.126 148.398 178.193 148.377 178.281 148.377C178.352 148.377 178.408 148.398 178.447 148.438C178.486 148.478 178.505 148.534 178.505 148.607V148.639L178.486 149.017C178.483 149.092 178.47 149.139 178.449 149.159C178.43 149.178 178.394 149.188 178.342 149.188H176.587C176.492 149.188 176.419 149.168 176.367 149.127C176.316 149.086 176.291 149.028 176.291 148.954C176.291 148.892 176.307 148.832 176.337 148.773C176.37 148.713 176.421 148.649 176.491 148.583L177.485 147.623C177.592 147.519 177.672 147.415 177.724 147.311C177.778 147.206 177.805 147.102 177.805 146.998C177.805 146.852 177.769 146.743 177.697 146.671C177.627 146.599 177.52 146.563 177.375 146.563C177.29 146.563 177.215 146.576 177.148 146.603C177.083 146.627 177.032 146.662 176.997 146.708C176.977 146.73 176.954 146.765 176.926 146.812C176.848 146.939 176.761 147.003 176.667 147.003C176.586 147.003 176.524 146.976 176.482 146.922C176.441 146.869 176.421 146.789 176.421 146.683C176.421 146.574 176.434 146.493 176.46 146.439C176.486 146.385 176.538 146.332 176.616 146.278C176.743 146.193 176.876 146.131 177.016 146.09C177.158 146.049 177.311 146.029 177.475 146.029C177.783 146.029 178.026 146.112 178.205 146.278C178.386 146.444 178.476 146.667 178.476 146.947C178.476 147.134 178.429 147.314 178.335 147.486C178.242 147.657 178.097 147.828 177.9 147.999L177.16 148.639ZM181.435 147.513C181.622 147.572 181.761 147.665 181.852 147.792C181.943 147.917 181.989 148.08 181.989 148.282C181.989 148.587 181.886 148.828 181.679 149.007C181.474 149.185 181.194 149.273 180.839 149.273C180.552 149.273 180.316 149.226 180.129 149.132C179.941 149.037 179.848 148.923 179.848 148.788C179.848 148.708 179.873 148.644 179.923 148.595C179.976 148.544 180.044 148.519 180.129 148.519C180.169 148.519 180.273 148.556 180.439 148.629C180.605 148.702 180.751 148.739 180.878 148.739C181.031 148.739 181.148 148.698 181.23 148.617C181.313 148.534 181.354 148.416 181.354 148.263C181.354 148.098 181.319 147.981 181.249 147.911C181.181 147.841 181.049 147.802 180.854 147.794C180.751 147.791 180.682 147.771 180.646 147.735C180.612 147.698 180.595 147.632 180.595 147.538C180.595 147.407 180.665 147.333 180.805 147.313C180.824 147.311 180.839 147.31 180.849 147.308C181.025 147.284 181.138 147.242 181.191 147.184C181.243 147.123 181.269 147.027 181.269 146.893C181.269 146.778 181.237 146.688 181.173 146.625C181.112 146.559 181.024 146.527 180.91 146.527C180.789 146.527 180.654 146.565 180.504 146.642C180.355 146.716 180.251 146.754 180.194 146.754C180.131 146.754 180.08 146.734 180.041 146.693C180.003 146.651 179.984 146.598 179.984 146.534C179.984 146.396 180.08 146.277 180.273 146.178C180.465 146.078 180.701 146.029 180.983 146.029C181.266 146.029 181.492 146.102 181.659 146.249C181.829 146.395 181.913 146.59 181.913 146.832C181.913 146.992 181.874 147.127 181.796 147.237C181.719 147.346 181.599 147.438 181.435 147.513Z" fill="#575364"/>
<path d="M177.16 155.352H178.015V155.337C178.015 155.254 178.037 155.193 178.081 155.152C178.126 155.111 178.193 155.091 178.281 155.091C178.352 155.091 178.408 155.111 178.447 155.152C178.486 155.191 178.505 155.247 178.505 155.32V155.352L178.486 155.73C178.483 155.805 178.47 155.853 178.449 155.872C178.43 155.892 178.394 155.901 178.342 155.901H176.587C176.492 155.901 176.419 155.881 176.367 155.84C176.316 155.8 176.291 155.742 176.291 155.667C176.291 155.605 176.307 155.545 176.337 155.486C176.37 155.426 176.421 155.363 176.491 155.296L177.485 154.336C177.592 154.232 177.672 154.128 177.724 154.024C177.778 153.92 177.805 153.816 177.805 153.711C177.805 153.565 177.769 153.456 177.697 153.384C177.627 153.313 177.52 153.277 177.375 153.277C177.29 153.277 177.215 153.29 177.148 153.316C177.083 153.34 177.032 153.375 176.997 153.421C176.977 153.444 176.954 153.479 176.926 153.526C176.848 153.653 176.761 153.716 176.667 153.716C176.586 153.716 176.524 153.689 176.482 153.636C176.441 153.582 176.421 153.502 176.421 153.396C176.421 153.287 176.434 153.206 176.46 153.152C176.486 153.099 176.538 153.045 176.616 152.991C176.743 152.907 176.876 152.844 177.016 152.803C177.158 152.763 177.311 152.742 177.475 152.742C177.783 152.742 178.026 152.825 178.205 152.991C178.386 153.157 178.476 153.38 178.476 153.66C178.476 153.847 178.429 154.027 178.335 154.2C178.242 154.371 178.097 154.542 177.9 154.712L177.16 155.352ZM181.64 154.681C181.645 154.682 181.65 154.684 181.654 154.686C181.659 154.686 181.667 154.686 181.679 154.686C181.711 154.686 181.749 154.665 181.791 154.625C181.833 154.582 181.869 154.561 181.899 154.561C181.967 154.561 182.021 154.578 182.06 154.612C182.099 154.645 182.118 154.691 182.118 154.751C182.118 154.768 182.117 154.785 182.113 154.803C182.112 154.821 182.108 154.837 182.104 154.852L182.05 155.032C182.04 155.066 182.024 155.092 182.001 155.108C181.978 155.124 181.949 155.132 181.913 155.132H181.64V155.438H181.784C181.798 155.438 181.817 155.438 181.84 155.44C181.863 155.442 181.877 155.442 181.884 155.442C181.942 155.442 181.992 155.464 182.033 155.508C182.073 155.551 182.094 155.605 182.094 155.672C182.094 155.753 182.069 155.812 182.021 155.848C181.973 155.883 181.894 155.901 181.784 155.901H180.754C180.643 155.901 180.564 155.883 180.517 155.848C180.471 155.812 180.448 155.753 180.448 155.672C180.448 155.589 180.472 155.529 180.519 155.494C180.566 155.456 180.644 155.438 180.754 155.438H181.11V155.132H179.984C179.942 155.132 179.91 155.119 179.887 155.093C179.866 155.067 179.855 155.03 179.855 154.981V154.832C179.855 154.772 179.859 154.725 179.867 154.693C179.877 154.659 179.893 154.623 179.914 154.585L180.939 152.842C180.963 152.802 180.983 152.776 180.998 152.767C181.014 152.757 181.036 152.752 181.064 152.752C181.078 152.752 181.09 152.753 181.1 152.754C181.112 152.754 181.121 152.755 181.129 152.757L181.564 152.833C181.588 152.837 181.607 152.85 181.62 152.872C181.633 152.893 181.64 152.921 181.64 152.957V154.681ZM181.11 153.331L180.343 154.681H181.11V153.331Z" fill="#575364"/>
<path d="M177.16 162.065H178.015V162.051C178.015 161.968 178.037 161.906 178.081 161.865C178.126 161.825 178.193 161.804 178.281 161.804C178.352 161.804 178.408 161.825 178.447 161.865C178.486 161.904 178.505 161.96 178.505 162.034V162.065L178.486 162.444C178.483 162.519 178.47 162.566 178.449 162.585C178.43 162.605 178.394 162.615 178.342 162.615H176.587C176.492 162.615 176.419 162.594 176.367 162.554C176.316 162.513 176.291 162.455 176.291 162.38C176.291 162.319 176.307 162.258 176.337 162.2C176.37 162.139 176.421 162.076 176.491 162.009L177.485 161.05C177.592 160.946 177.672 160.841 177.724 160.737C177.778 160.633 177.805 160.529 177.805 160.425C177.805 160.278 177.769 160.169 177.697 160.098C177.627 160.026 177.52 159.99 177.375 159.99C177.29 159.99 177.215 160.003 177.148 160.029C177.083 160.054 177.032 160.089 176.997 160.134C176.977 160.157 176.954 160.192 176.926 160.239C176.848 160.366 176.761 160.43 176.667 160.43C176.586 160.43 176.524 160.403 176.482 160.349C176.441 160.295 176.421 160.216 176.421 160.11C176.421 160.001 176.434 159.919 176.46 159.866C176.486 159.812 176.538 159.758 176.616 159.705C176.743 159.62 176.876 159.557 177.016 159.517C177.158 159.476 177.311 159.456 177.475 159.456C177.783 159.456 178.026 159.539 178.205 159.705C178.386 159.871 178.476 160.094 178.476 160.374C178.476 160.561 178.429 160.741 178.335 160.913C178.242 161.084 178.097 161.255 177.9 161.426L177.16 162.065ZM180.544 160.081V160.645C180.649 160.614 180.745 160.591 180.832 160.576C180.918 160.562 180.998 160.554 181.073 160.554C181.366 160.554 181.603 160.651 181.784 160.845C181.964 161.037 182.055 161.29 182.055 161.604C182.055 161.959 181.944 162.23 181.723 162.417C181.501 162.603 181.18 162.695 180.758 162.695C180.456 162.695 180.225 162.662 180.067 162.595C179.911 162.528 179.833 162.43 179.833 162.3C179.833 162.222 179.861 162.155 179.916 162.1C179.971 162.043 180.037 162.014 180.114 162.014C180.161 162.014 180.263 162.038 180.419 162.085C180.577 162.132 180.712 162.156 180.824 162.156C181.008 162.156 181.151 162.109 181.252 162.014C181.352 161.918 181.403 161.783 181.403 161.609C181.403 161.44 181.355 161.305 181.259 161.206C181.164 161.105 181.036 161.055 180.873 161.055C180.769 161.055 180.645 161.088 180.502 161.155C180.359 161.222 180.261 161.255 180.209 161.255C180.116 161.255 180.05 161.23 180.011 161.179C179.972 161.127 179.953 161.039 179.953 160.916V159.734C179.953 159.646 179.964 159.591 179.987 159.568C180.011 159.545 180.052 159.534 180.109 159.534H181.708C181.809 159.534 181.879 159.554 181.918 159.595C181.959 159.634 181.979 159.705 181.979 159.81C181.979 159.912 181.96 159.983 181.921 160.022C181.881 160.061 181.811 160.081 181.708 160.081H180.544Z" fill="#575364"/>
<path d="M177.16 168.779H178.015V168.764C178.015 168.681 178.037 168.619 178.081 168.579C178.126 168.538 178.193 168.518 178.281 168.518C178.352 168.518 178.408 168.538 178.447 168.579C178.486 168.618 178.505 168.674 178.505 168.747V168.779L178.486 169.157C178.483 169.232 178.47 169.279 178.449 169.299C178.43 169.318 178.394 169.328 178.342 169.328H176.587C176.492 169.328 176.419 169.308 176.367 169.267C176.316 169.226 176.291 169.169 176.291 169.094C176.291 169.032 176.307 168.972 176.337 168.913C176.37 168.853 176.421 168.789 176.491 168.723L177.485 167.763C177.592 167.659 177.672 167.555 177.724 167.451C177.778 167.347 177.805 167.242 177.805 167.138C177.805 166.992 177.769 166.883 177.697 166.811C177.627 166.739 177.52 166.704 177.375 166.704C177.29 166.704 177.215 166.717 177.148 166.743C177.083 166.767 177.032 166.802 176.997 166.848C176.977 166.87 176.954 166.905 176.926 166.953C176.848 167.08 176.761 167.143 176.667 167.143C176.586 167.143 176.524 167.116 176.482 167.062C176.441 167.009 176.421 166.929 176.421 166.823C176.421 166.714 176.434 166.633 176.46 166.579C176.486 166.525 176.538 166.472 176.616 166.418C176.743 166.333 176.876 166.271 177.016 166.23C177.158 166.189 177.311 166.169 177.475 166.169C177.783 166.169 178.026 166.252 178.205 166.418C178.386 166.584 178.476 166.807 178.476 167.087C178.476 167.274 178.429 167.454 178.335 167.626C178.242 167.797 178.097 167.968 177.9 168.139L177.16 168.779ZM181.469 168.403C181.469 168.243 181.425 168.113 181.337 168.012C181.249 167.91 181.136 167.858 180.998 167.858C180.864 167.858 180.753 167.908 180.663 168.007C180.574 168.105 180.529 168.229 180.529 168.378C180.529 168.54 180.574 168.671 180.666 168.774C180.758 168.876 180.876 168.928 181.02 168.928C181.151 168.928 181.259 168.88 181.342 168.784C181.427 168.686 181.469 168.559 181.469 168.403ZM180.519 167.602C180.599 167.513 180.694 167.444 180.805 167.397C180.915 167.348 181.033 167.324 181.159 167.324C181.421 167.324 181.641 167.424 181.82 167.624C181.999 167.823 182.089 168.069 182.089 168.364C182.089 168.675 181.988 168.926 181.786 169.118C181.586 169.309 181.32 169.404 180.988 169.404C180.643 169.404 180.371 169.278 180.172 169.028C179.974 168.776 179.875 168.429 179.875 167.988C179.875 167.441 180.028 167.001 180.334 166.669C180.641 166.336 181.048 166.169 181.554 166.169C181.724 166.169 181.845 166.183 181.918 166.21C181.991 166.238 182.028 166.284 182.028 166.347C182.028 166.495 181.913 166.576 181.684 166.589C181.588 166.595 181.511 166.602 181.454 166.608C181.2 166.636 180.998 166.73 180.846 166.889C180.697 167.049 180.587 167.286 180.519 167.602Z" fill="#575364"/>
<path d="M177.16 175.492H178.015V175.477C178.015 175.394 178.037 175.332 178.081 175.292C178.126 175.251 178.193 175.23 178.281 175.23C178.352 175.23 178.408 175.251 178.447 175.292C178.486 175.331 178.505 175.387 178.505 175.46V175.492L178.486 175.87C178.483 175.945 178.47 175.992 178.449 176.012C178.43 176.031 178.394 176.041 178.342 176.041H176.587C176.492 176.041 176.419 176.021 176.367 175.98C176.316 175.939 176.291 175.882 176.291 175.807C176.291 175.745 176.307 175.685 176.337 175.626C176.37 175.566 176.421 175.502 176.491 175.436L177.485 174.476C177.592 174.372 177.672 174.268 177.724 174.164C177.778 174.059 177.805 173.955 177.805 173.851C177.805 173.705 177.769 173.596 177.697 173.524C177.627 173.452 177.52 173.417 177.375 173.417C177.29 173.417 177.215 173.43 177.148 173.456C177.083 173.48 177.032 173.515 176.997 173.561C176.977 173.583 176.954 173.618 176.926 173.666C176.848 173.792 176.761 173.856 176.667 173.856C176.586 173.856 176.524 173.829 176.482 173.775C176.441 173.722 176.421 173.642 176.421 173.536C176.421 173.427 176.434 173.346 176.46 173.292C176.486 173.238 176.538 173.185 176.616 173.131C176.743 173.046 176.876 172.984 177.016 172.943C177.158 172.902 177.311 172.882 177.475 172.882C177.783 172.882 178.026 172.965 178.205 173.131C178.386 173.297 178.476 173.52 178.476 173.8C178.476 173.987 178.429 174.167 178.335 174.339C178.242 174.51 178.097 174.681 177.9 174.852L177.16 175.492ZM181.859 173.221L181.068 175.97C181.055 176.013 181.038 176.041 181.017 176.056C180.996 176.072 180.965 176.08 180.924 176.08H180.473C180.45 176.08 180.43 176.073 180.414 176.058C180.398 176.043 180.39 176.026 180.39 176.007C180.39 175.986 180.391 175.97 180.392 175.96C180.394 175.949 180.396 175.939 180.4 175.931L181.274 173.507H180.224L180.214 173.551C180.206 173.604 180.181 173.648 180.138 173.683C180.098 173.715 180.048 173.731 179.989 173.731C179.921 173.731 179.871 173.716 179.838 173.685C179.805 173.654 179.789 173.606 179.789 173.541C179.789 173.535 179.79 173.525 179.792 173.512C179.793 173.499 179.794 173.488 179.794 173.48L179.838 173.102C179.843 173.056 179.86 173.021 179.889 172.997C179.919 172.972 179.957 172.96 180.004 172.96H181.73C181.776 172.96 181.808 172.971 181.828 172.992C181.849 173.011 181.859 173.043 181.859 173.087V173.221Z" fill="#575364"/>
<path d="M177.16 182.205H178.015V182.19C178.015 182.107 178.037 182.046 178.081 182.005C178.126 181.964 178.193 181.944 178.281 181.944C178.352 181.944 178.408 181.964 178.447 182.005C178.486 182.044 178.505 182.1 178.505 182.173V182.205L178.486 182.583C178.483 182.658 178.47 182.706 178.449 182.725C178.43 182.745 178.394 182.754 178.342 182.754H176.587C176.492 182.754 176.419 182.734 176.367 182.693C176.316 182.653 176.291 182.595 176.291 182.52C176.291 182.458 176.307 182.398 176.337 182.339C176.37 182.279 176.421 182.216 176.491 182.149L177.485 181.189C177.592 181.085 177.672 180.981 177.724 180.877C177.778 180.773 177.805 180.669 177.805 180.564C177.805 180.418 177.769 180.309 177.697 180.237C177.627 180.166 177.52 180.13 177.375 180.13C177.29 180.13 177.215 180.143 177.148 180.169C177.083 180.193 177.032 180.228 176.997 180.274C176.977 180.297 176.954 180.332 176.926 180.379C176.848 180.506 176.761 180.569 176.667 180.569C176.586 180.569 176.524 180.542 176.482 180.489C176.441 180.435 176.421 180.355 176.421 180.25C176.421 180.14 176.434 180.059 176.46 180.005C176.486 179.952 176.538 179.898 176.616 179.844C176.743 179.76 176.876 179.697 177.016 179.656C177.158 179.616 177.311 179.595 177.475 179.595C177.783 179.595 178.026 179.678 178.205 179.844C178.386 180.01 178.476 180.233 178.476 180.513C178.476 180.7 178.429 180.88 178.335 181.053C178.242 181.224 178.097 181.395 177.9 181.565L177.16 182.205ZM180.988 181.443C180.838 181.443 180.718 181.485 180.627 181.568C180.535 181.651 180.49 181.762 180.49 181.9C180.49 182.032 180.536 182.141 180.629 182.227C180.722 182.312 180.841 182.354 180.988 182.354C181.139 182.354 181.261 182.312 181.352 182.229C181.443 182.146 181.488 182.037 181.488 181.9C181.488 181.765 181.442 181.655 181.349 181.57C181.256 181.486 181.136 181.443 180.988 181.443ZM181.545 181.175C181.728 181.242 181.87 181.34 181.969 181.47C182.069 181.6 182.118 181.752 182.118 181.924C182.118 182.193 182.014 182.412 181.806 182.581C181.597 182.75 181.325 182.835 180.988 182.835C180.657 182.835 180.386 182.75 180.175 182.581C179.965 182.412 179.86 182.196 179.86 181.934C179.86 181.758 179.91 181.605 180.009 181.475C180.108 181.343 180.25 181.243 180.434 181.175C180.255 181.097 180.12 180.998 180.028 180.879C179.939 180.761 179.894 180.621 179.894 180.459C179.894 180.209 179.996 180.002 180.199 179.839C180.404 179.677 180.667 179.595 180.988 179.595C181.309 179.595 181.572 179.677 181.779 179.842C181.986 180.006 182.089 180.212 182.089 180.459C182.089 180.621 182.043 180.761 181.95 180.882C181.859 181.002 181.724 181.1 181.545 181.175ZM180.988 180.054C180.851 180.054 180.738 180.095 180.649 180.176C180.559 180.258 180.514 180.36 180.514 180.484C180.514 180.608 180.559 180.71 180.649 180.792C180.738 180.873 180.851 180.914 180.988 180.914C181.128 180.914 181.241 180.875 181.327 180.796C181.415 180.717 181.459 180.612 181.459 180.484C181.459 180.36 181.415 180.258 181.327 180.176C181.239 180.095 181.126 180.054 180.988 180.054Z" fill="#575364"/>
<path d="M177.16 188.918H178.015V188.904C178.015 188.821 178.037 188.759 178.081 188.718C178.126 188.678 178.193 188.657 178.281 188.657C178.352 188.657 178.408 188.678 178.447 188.718C178.486 188.757 178.505 188.813 178.505 188.887V188.918L178.486 189.297C178.483 189.372 178.47 189.419 178.449 189.438C178.43 189.458 178.394 189.468 178.342 189.468H176.587C176.492 189.468 176.419 189.447 176.367 189.407C176.316 189.366 176.291 189.308 176.291 189.233C176.291 189.172 176.307 189.111 176.337 189.053C176.37 188.993 176.421 188.929 176.491 188.862L177.485 187.903C177.592 187.799 177.672 187.694 177.724 187.59C177.778 187.486 177.805 187.382 177.805 187.278C177.805 187.131 177.769 187.022 177.697 186.951C177.627 186.879 177.52 186.843 177.375 186.843C177.29 186.843 177.215 186.856 177.148 186.882C177.083 186.907 177.032 186.942 176.997 186.987C176.977 187.01 176.954 187.045 176.926 187.092C176.848 187.219 176.761 187.283 176.667 187.283C176.586 187.283 176.524 187.256 176.482 187.202C176.441 187.148 176.421 187.069 176.421 186.963C176.421 186.854 176.434 186.772 176.46 186.719C176.486 186.665 176.538 186.611 176.616 186.558C176.743 186.473 176.876 186.41 177.016 186.37C177.158 186.329 177.311 186.309 177.475 186.309C177.783 186.309 178.026 186.392 178.205 186.558C178.386 186.724 178.476 186.947 178.476 187.227C178.476 187.414 178.429 187.594 178.335 187.766C178.242 187.937 178.097 188.108 177.9 188.279L177.16 188.918ZM181.435 188.113C181.357 188.202 181.262 188.271 181.151 188.32C181.041 188.369 180.922 188.394 180.795 188.394C180.533 188.394 180.312 188.293 180.133 188.093C179.954 187.893 179.865 187.646 179.865 187.354C179.865 187.043 179.965 186.792 180.165 186.602C180.367 186.41 180.633 186.313 180.963 186.313C181.309 186.313 181.58 186.44 181.779 186.692C181.979 186.943 182.079 187.288 182.079 187.727C182.079 188.276 181.925 188.717 181.618 189.05C181.31 189.382 180.904 189.548 180.4 189.548C180.229 189.548 180.107 189.534 180.033 189.504C179.96 189.477 179.923 189.431 179.923 189.368C179.923 189.22 180.038 189.14 180.268 189.128C180.365 189.122 180.444 189.115 180.504 189.109C180.762 189.078 180.963 188.984 181.11 188.828C181.258 188.67 181.366 188.432 181.435 188.113ZM181.425 187.339C181.425 187.174 181.379 187.042 181.286 186.941C181.195 186.838 181.077 186.787 180.934 186.787C180.801 186.787 180.692 186.836 180.609 186.934C180.526 187.03 180.485 187.156 180.485 187.312C180.485 187.473 180.529 187.605 180.617 187.708C180.705 187.808 180.817 187.859 180.954 187.859C181.089 187.859 181.201 187.81 181.291 187.712C181.38 187.613 181.425 187.489 181.425 187.339Z" fill="#575364"/>
<path d="M177.932 194.506C178.119 194.565 178.258 194.658 178.349 194.785C178.44 194.91 178.486 195.074 178.486 195.275C178.486 195.58 178.383 195.821 178.176 196C177.971 196.178 177.691 196.267 177.336 196.267C177.05 196.267 176.813 196.219 176.626 196.125C176.438 196.031 176.345 195.916 176.345 195.781C176.345 195.701 176.37 195.637 176.421 195.588C176.473 195.537 176.541 195.512 176.626 195.512C176.666 195.512 176.77 195.549 176.936 195.622C177.102 195.695 177.248 195.732 177.375 195.732C177.528 195.732 177.645 195.691 177.727 195.61C177.81 195.527 177.851 195.409 177.851 195.256C177.851 195.091 177.816 194.974 177.746 194.904C177.678 194.834 177.546 194.795 177.351 194.787C177.248 194.784 177.179 194.764 177.143 194.729C177.109 194.691 177.092 194.625 177.092 194.531C177.092 194.401 177.162 194.326 177.302 194.306C177.321 194.305 177.336 194.303 177.346 194.301C177.522 194.277 177.636 194.235 177.688 194.177C177.74 194.117 177.766 194.02 177.766 193.886C177.766 193.771 177.734 193.681 177.671 193.618C177.609 193.553 177.521 193.52 177.407 193.52C177.286 193.52 177.151 193.558 177.002 193.635C176.852 193.71 176.748 193.747 176.691 193.747C176.628 193.747 176.577 193.727 176.538 193.686C176.5 193.644 176.482 193.591 176.482 193.527C176.482 193.389 176.578 193.27 176.77 193.171C176.962 193.072 177.198 193.022 177.48 193.022C177.763 193.022 177.989 193.095 178.156 193.242C178.326 193.388 178.41 193.583 178.41 193.825C178.41 193.985 178.371 194.12 178.293 194.23C178.217 194.34 178.096 194.431 177.932 194.506ZM180.988 193.571C180.815 193.571 180.679 193.666 180.578 193.854C180.478 194.043 180.429 194.304 180.429 194.636C180.429 194.973 180.478 195.236 180.578 195.427C180.677 195.616 180.814 195.71 180.988 195.71C181.162 195.71 181.299 195.616 181.398 195.427C181.499 195.236 181.549 194.973 181.549 194.636C181.549 194.304 181.499 194.043 181.398 193.854C181.299 193.666 181.162 193.571 180.988 193.571ZM180.983 193.022C181.357 193.022 181.654 193.168 181.874 193.459C182.094 193.749 182.204 194.143 182.204 194.641C182.204 195.14 182.094 195.536 181.874 195.827C181.654 196.117 181.357 196.262 180.983 196.262C180.612 196.262 180.317 196.117 180.099 195.827C179.883 195.536 179.775 195.14 179.775 194.641C179.775 194.141 179.883 193.746 180.099 193.457C180.317 193.167 180.612 193.022 180.983 193.022Z" fill="#575364"/>
<path d="M177.932 201.22C178.119 201.278 178.258 201.371 178.349 201.498C178.44 201.623 178.486 201.787 178.486 201.989C178.486 202.293 178.383 202.535 178.176 202.714C177.971 202.891 177.691 202.98 177.336 202.98C177.05 202.98 176.813 202.933 176.626 202.838C176.438 202.744 176.345 202.629 176.345 202.494C176.345 202.414 176.37 202.35 176.421 202.301C176.473 202.251 176.541 202.226 176.626 202.226C176.666 202.226 176.77 202.262 176.936 202.335C177.102 202.409 177.248 202.445 177.375 202.445C177.528 202.445 177.645 202.405 177.727 202.323C177.81 202.24 177.851 202.122 177.851 201.969C177.851 201.805 177.816 201.688 177.746 201.618C177.678 201.548 177.546 201.509 177.351 201.5C177.248 201.497 177.179 201.478 177.143 201.442C177.109 201.404 177.092 201.339 177.092 201.244C177.092 201.114 177.162 201.039 177.302 201.02C177.321 201.018 177.336 201.016 177.346 201.015C177.522 200.99 177.636 200.949 177.688 200.89C177.74 200.83 177.766 200.733 177.766 200.6C177.766 200.484 177.734 200.395 177.671 200.331C177.609 200.266 177.521 200.233 177.407 200.233C177.286 200.233 177.151 200.272 177.002 200.348C176.852 200.423 176.748 200.46 176.691 200.46C176.628 200.46 176.577 200.44 176.538 200.399C176.5 200.357 176.482 200.304 176.482 200.241C176.482 200.102 176.578 199.984 176.77 199.884C176.962 199.785 177.198 199.735 177.48 199.735C177.763 199.735 177.989 199.809 178.156 199.955C178.326 200.102 178.41 200.296 178.41 200.539C178.41 200.698 178.371 200.833 178.293 200.944C178.217 201.053 178.096 201.145 177.932 201.22ZM181.359 202.375H181.754C181.864 202.375 181.942 202.395 181.991 202.436C182.04 202.476 182.065 202.543 182.065 202.636C182.065 202.727 182.041 202.793 181.994 202.833C181.947 202.874 181.867 202.895 181.754 202.895H180.314C180.202 202.895 180.122 202.874 180.075 202.833C180.028 202.793 180.004 202.727 180.004 202.636C180.004 202.543 180.028 202.476 180.075 202.436C180.124 202.395 180.203 202.375 180.314 202.375H180.768V200.314L180.495 200.385C180.452 200.395 180.417 200.402 180.39 200.407C180.362 200.412 180.342 200.414 180.329 200.414C180.262 200.414 180.21 200.393 180.172 200.351C180.137 200.308 180.119 200.248 180.119 200.17C180.119 200.113 180.139 200.065 180.18 200.026C180.22 199.987 180.283 199.957 180.368 199.936L180.973 199.77C181.024 199.757 181.065 199.747 181.098 199.74C181.13 199.734 181.157 199.73 181.178 199.73C181.243 199.73 181.29 199.748 181.317 199.784C181.345 199.82 181.359 199.88 181.359 199.965V202.375Z" fill="#575364"/>
<path d="M177.932 207.933C178.119 207.991 178.258 208.084 178.349 208.211C178.44 208.336 178.486 208.5 178.486 208.702C178.486 209.006 178.383 209.248 178.176 209.427C177.971 209.604 177.691 209.693 177.336 209.693C177.05 209.693 176.813 209.646 176.626 209.551C176.438 209.457 176.345 209.342 176.345 209.207C176.345 209.127 176.37 209.063 176.421 209.014C176.473 208.964 176.541 208.938 176.626 208.938C176.666 208.938 176.77 208.975 176.936 209.048C177.102 209.122 177.248 209.158 177.375 209.158C177.528 209.158 177.645 209.118 177.727 209.036C177.81 208.953 177.851 208.835 177.851 208.682C177.851 208.518 177.816 208.401 177.746 208.331C177.678 208.261 177.546 208.222 177.351 208.213C177.248 208.21 177.179 208.191 177.143 208.155C177.109 208.117 177.092 208.051 177.092 207.957C177.092 207.827 177.162 207.752 177.302 207.732C177.321 207.731 177.336 207.729 177.346 207.728C177.522 207.703 177.636 207.662 177.688 207.603C177.74 207.543 177.766 207.446 177.766 207.312C177.766 207.197 177.734 207.107 177.671 207.044C177.609 206.979 177.521 206.946 177.407 206.946C177.286 206.946 177.151 206.985 177.002 207.061C176.852 207.136 176.748 207.173 176.691 207.173C176.628 207.173 176.577 207.153 176.538 207.112C176.5 207.07 176.482 207.017 176.482 206.954C176.482 206.815 176.578 206.696 176.77 206.597C176.962 206.498 177.198 206.448 177.48 206.448C177.763 206.448 177.989 206.521 178.156 206.668C178.326 206.814 178.41 207.009 178.41 207.251C178.41 207.411 178.371 207.546 178.293 207.657C178.217 207.766 178.096 207.858 177.932 207.933ZM180.663 209.058H181.518V209.043C181.518 208.96 181.54 208.899 181.584 208.858C181.629 208.817 181.696 208.797 181.784 208.797C181.855 208.797 181.911 208.817 181.95 208.858C181.989 208.897 182.008 208.953 182.008 209.026V209.058L181.989 209.437C181.986 209.511 181.973 209.559 181.952 209.578C181.933 209.598 181.897 209.607 181.845 209.607H180.089C179.995 209.607 179.922 209.587 179.87 209.546C179.819 209.506 179.794 209.448 179.794 209.373C179.794 209.311 179.809 209.251 179.84 209.192C179.873 209.132 179.924 209.069 179.994 209.002L180.988 208.042C181.095 207.938 181.175 207.834 181.227 207.73C181.281 207.626 181.308 207.522 181.308 207.417C181.308 207.271 181.272 207.162 181.2 207.09C181.13 207.019 181.023 206.983 180.878 206.983C180.793 206.983 180.718 206.996 180.651 207.022C180.586 207.046 180.535 207.081 180.5 207.127C180.48 207.15 180.456 207.185 180.429 207.232C180.351 207.359 180.264 207.422 180.17 207.422C180.089 207.422 180.027 207.396 179.984 207.342C179.944 207.288 179.923 207.208 179.923 207.103C179.923 206.993 179.936 206.912 179.962 206.858C179.989 206.805 180.041 206.751 180.119 206.697C180.246 206.613 180.379 206.55 180.519 206.509C180.661 206.469 180.814 206.448 180.978 206.448C181.286 206.448 181.529 206.531 181.708 206.697C181.889 206.863 181.979 207.086 181.979 207.366C181.979 207.553 181.932 207.733 181.837 207.906C181.745 208.077 181.6 208.248 181.403 208.418L180.663 209.058Z" fill="#575364"/>
<path d="M177.932 214.646C178.119 214.705 178.258 214.797 178.349 214.924C178.44 215.05 178.486 215.213 178.486 215.415C178.486 215.719 178.383 215.961 178.176 216.14C177.971 216.318 177.691 216.406 177.336 216.406C177.05 216.406 176.813 216.359 176.626 216.265C176.438 216.17 176.345 216.056 176.345 215.92C176.345 215.841 176.37 215.776 176.421 215.728C176.473 215.677 176.541 215.652 176.626 215.652C176.666 215.652 176.77 215.688 176.936 215.762C177.102 215.835 177.248 215.872 177.375 215.872C177.528 215.872 177.645 215.831 177.727 215.75C177.81 215.667 177.851 215.549 177.851 215.396C177.851 215.231 177.816 215.114 177.746 215.044C177.678 214.974 177.546 214.935 177.351 214.927C177.248 214.924 177.179 214.904 177.143 214.868C177.109 214.831 177.092 214.765 177.092 214.67C177.092 214.54 177.162 214.465 177.302 214.446C177.321 214.444 177.336 214.443 177.346 214.441C177.522 214.417 177.636 214.375 177.688 214.316C177.74 214.256 177.766 214.159 177.766 214.026C177.766 213.91 177.734 213.821 177.671 213.757C177.609 213.692 177.521 213.66 177.407 213.66C177.286 213.66 177.151 213.698 177.002 213.774C176.852 213.849 176.748 213.887 176.691 213.887C176.628 213.887 176.577 213.866 176.538 213.826C176.5 213.783 176.482 213.73 176.482 213.667C176.482 213.529 176.578 213.41 176.77 213.311C176.962 213.211 177.198 213.162 177.48 213.162C177.763 213.162 177.989 213.235 178.156 213.381C178.326 213.528 178.41 213.722 178.41 213.965C178.41 214.124 178.371 214.259 178.293 214.37C178.217 214.479 178.096 214.571 177.932 214.646ZM181.435 214.646C181.622 214.705 181.761 214.797 181.852 214.924C181.943 215.05 181.989 215.213 181.989 215.415C181.989 215.719 181.886 215.961 181.679 216.14C181.474 216.318 181.194 216.406 180.839 216.406C180.552 216.406 180.316 216.359 180.129 216.265C179.941 216.17 179.848 216.056 179.848 215.92C179.848 215.841 179.873 215.776 179.923 215.728C179.976 215.677 180.044 215.652 180.129 215.652C180.169 215.652 180.273 215.688 180.439 215.762C180.605 215.835 180.751 215.872 180.878 215.872C181.031 215.872 181.148 215.831 181.23 215.75C181.313 215.667 181.354 215.549 181.354 215.396C181.354 215.231 181.319 215.114 181.249 215.044C181.181 214.974 181.049 214.935 180.854 214.927C180.751 214.924 180.682 214.904 180.646 214.868C180.612 214.831 180.595 214.765 180.595 214.67C180.595 214.54 180.665 214.465 180.805 214.446C180.824 214.444 180.839 214.443 180.849 214.441C181.025 214.417 181.138 214.375 181.191 214.316C181.243 214.256 181.269 214.159 181.269 214.026C181.269 213.91 181.237 213.821 181.173 213.757C181.112 213.692 181.024 213.66 180.91 213.66C180.789 213.66 180.654 213.698 180.504 213.774C180.355 213.849 180.251 213.887 180.194 213.887C180.131 213.887 180.08 213.866 180.041 213.826C180.003 213.783 179.984 213.73 179.984 213.667C179.984 213.529 180.08 213.41 180.273 213.311C180.465 213.211 180.701 213.162 180.983 213.162C181.266 213.162 181.492 213.235 181.659 213.381C181.829 213.528 181.913 213.722 181.913 213.965C181.913 214.124 181.874 214.259 181.796 214.37C181.719 214.479 181.599 214.571 181.435 214.646Z" fill="#575364"/>
<path d="M177.932 221.359C178.119 221.418 178.258 221.511 178.349 221.638C178.44 221.763 178.486 221.927 178.486 222.128C178.486 222.433 178.383 222.674 178.176 222.854C177.971 223.031 177.691 223.12 177.336 223.12C177.05 223.12 176.813 223.072 176.626 222.978C176.438 222.884 176.345 222.769 176.345 222.634C176.345 222.554 176.37 222.49 176.421 222.441C176.473 222.39 176.541 222.365 176.626 222.365C176.666 222.365 176.77 222.402 176.936 222.475C177.102 222.548 177.248 222.585 177.375 222.585C177.528 222.585 177.645 222.544 177.727 222.463C177.81 222.38 177.851 222.262 177.851 222.109C177.851 221.944 177.816 221.827 177.746 221.757C177.678 221.687 177.546 221.648 177.351 221.64C177.248 221.637 177.179 221.617 177.143 221.582C177.109 221.544 177.092 221.478 177.092 221.384C177.092 221.254 177.162 221.179 177.302 221.159C177.321 221.158 177.336 221.156 177.346 221.154C177.522 221.13 177.636 221.088 177.688 221.03C177.74 220.97 177.766 220.873 177.766 220.739C177.766 220.624 177.734 220.534 177.671 220.471C177.609 220.406 177.521 220.373 177.407 220.373C177.286 220.373 177.151 220.411 177.002 220.488C176.852 220.563 176.748 220.6 176.691 220.6C176.628 220.6 176.577 220.58 176.538 220.539C176.5 220.497 176.482 220.444 176.482 220.38C176.482 220.242 176.578 220.123 176.77 220.024C176.962 219.925 177.198 219.875 177.48 219.875C177.763 219.875 177.989 219.948 178.156 220.095C178.326 220.241 178.41 220.436 178.41 220.678C178.41 220.838 178.371 220.973 178.293 221.083C178.217 221.193 178.096 221.285 177.932 221.359ZM181.64 221.813C181.645 221.815 181.65 221.817 181.654 221.818C181.659 221.818 181.667 221.818 181.679 221.818C181.711 221.818 181.749 221.798 181.791 221.757C181.833 221.715 181.869 221.694 181.899 221.694C181.967 221.694 182.021 221.711 182.06 221.745C182.099 221.778 182.118 221.824 182.118 221.884C182.118 221.901 182.117 221.918 182.113 221.936C182.112 221.953 182.108 221.97 182.104 221.984L182.05 222.165C182.04 222.199 182.024 222.224 182.001 222.241C181.978 222.257 181.949 222.265 181.913 222.265H181.64V222.57H181.784C181.798 222.57 181.817 222.571 181.84 222.573C181.863 222.574 181.877 222.575 181.884 222.575C181.942 222.575 181.992 222.597 182.033 222.641C182.073 222.683 182.094 222.738 182.094 222.805C182.094 222.886 182.069 222.945 182.021 222.98C181.973 223.016 181.894 223.034 181.784 223.034H180.754C180.643 223.034 180.564 223.016 180.517 222.98C180.471 222.945 180.448 222.886 180.448 222.805C180.448 222.722 180.472 222.662 180.519 222.626C180.566 222.589 180.644 222.57 180.754 222.57H181.11V222.265H179.984C179.942 222.265 179.91 222.252 179.887 222.226C179.866 222.2 179.855 222.163 179.855 222.114V221.965C179.855 221.905 179.859 221.858 179.867 221.826C179.877 221.792 179.893 221.756 179.914 221.718L180.939 219.975C180.963 219.934 180.983 219.909 180.998 219.899C181.014 219.89 181.036 219.885 181.064 219.885C181.078 219.885 181.09 219.886 181.1 219.887C181.112 219.887 181.121 219.888 181.129 219.89L181.564 219.965C181.588 219.97 181.607 219.983 181.62 220.004C181.633 220.026 181.64 220.054 181.64 220.09V221.813ZM181.11 220.463L180.343 221.813H181.11V220.463Z" fill="#575364"/>
<path d="M177.932 228.073C178.119 228.131 178.258 228.224 178.349 228.351C178.44 228.476 178.486 228.64 178.486 228.842C178.486 229.146 178.383 229.388 178.176 229.567C177.971 229.744 177.691 229.833 177.336 229.833C177.05 229.833 176.813 229.786 176.626 229.691C176.438 229.597 176.345 229.482 176.345 229.347C176.345 229.267 176.37 229.203 176.421 229.154C176.473 229.104 176.541 229.079 176.626 229.079C176.666 229.079 176.77 229.115 176.936 229.188C177.102 229.262 177.248 229.298 177.375 229.298C177.528 229.298 177.645 229.258 177.727 229.176C177.81 229.093 177.851 228.975 177.851 228.822C177.851 228.658 177.816 228.541 177.746 228.471C177.678 228.401 177.546 228.362 177.351 228.354C177.248 228.35 177.179 228.331 177.143 228.295C177.109 228.257 177.092 228.192 177.092 228.097C177.092 227.967 177.162 227.892 177.302 227.873C177.321 227.871 177.336 227.869 177.346 227.868C177.522 227.843 177.636 227.802 177.688 227.743C177.74 227.683 177.766 227.586 177.766 227.453C177.766 227.337 177.734 227.248 177.671 227.184C177.609 227.119 177.521 227.086 177.407 227.086C177.286 227.086 177.151 227.125 177.002 227.201C176.852 227.276 176.748 227.313 176.691 227.313C176.628 227.313 176.577 227.293 176.538 227.252C176.5 227.21 176.482 227.157 176.482 227.094C176.482 226.955 176.578 226.837 176.77 226.737C176.962 226.638 177.198 226.588 177.48 226.588C177.763 226.588 177.989 226.662 178.156 226.808C178.326 226.955 178.41 227.149 178.41 227.392C178.41 227.551 178.371 227.686 178.293 227.797C178.217 227.906 178.096 227.998 177.932 228.073ZM180.544 227.213V227.777C180.649 227.746 180.745 227.724 180.832 227.709C180.918 227.694 180.998 227.687 181.073 227.687C181.366 227.687 181.603 227.784 181.784 227.978C181.964 228.17 182.055 228.423 182.055 228.737C182.055 229.092 181.944 229.363 181.723 229.55C181.501 229.735 181.18 229.828 180.758 229.828C180.456 229.828 180.225 229.795 180.067 229.728C179.911 229.661 179.833 229.563 179.833 229.433C179.833 229.354 179.861 229.288 179.916 229.232C179.971 229.175 180.037 229.147 180.114 229.147C180.161 229.147 180.263 229.171 180.419 229.218C180.577 229.265 180.712 229.289 180.824 229.289C181.008 229.289 181.151 229.241 181.252 229.147C181.352 229.051 181.403 228.916 181.403 228.742C181.403 228.572 181.355 228.438 181.259 228.339C181.164 228.238 181.036 228.188 180.873 228.188C180.769 228.188 180.645 228.221 180.502 228.288C180.359 228.354 180.261 228.388 180.209 228.388C180.116 228.388 180.05 228.362 180.011 228.312C179.972 228.26 179.953 228.172 179.953 228.048V226.867C179.953 226.779 179.964 226.723 179.987 226.701C180.011 226.678 180.052 226.667 180.109 226.667H181.708C181.809 226.667 181.879 226.687 181.918 226.728C181.959 226.767 181.979 226.838 181.979 226.942C181.979 227.045 181.96 227.116 181.921 227.155C181.881 227.194 181.811 227.213 181.708 227.213H180.544Z" fill="#575364"/>
<path d="M177.932 234.786C178.119 234.844 178.258 234.937 178.349 235.064C178.44 235.189 178.486 235.353 178.486 235.555C178.486 235.859 178.383 236.101 178.176 236.28C177.971 236.457 177.691 236.546 177.336 236.546C177.05 236.546 176.813 236.499 176.626 236.404C176.438 236.31 176.345 236.195 176.345 236.06C176.345 235.98 176.37 235.916 176.421 235.867C176.473 235.817 176.541 235.792 176.626 235.792C176.666 235.792 176.77 235.828 176.936 235.901C177.102 235.975 177.248 236.011 177.375 236.011C177.528 236.011 177.645 235.971 177.727 235.889C177.81 235.806 177.851 235.688 177.851 235.535C177.851 235.371 177.816 235.254 177.746 235.184C177.678 235.114 177.546 235.075 177.351 235.066C177.248 235.063 177.179 235.044 177.143 235.008C177.109 234.97 177.092 234.904 177.092 234.81C177.092 234.68 177.162 234.605 177.302 234.585C177.321 234.584 177.336 234.582 177.346 234.581C177.522 234.556 177.636 234.515 177.688 234.456C177.74 234.396 177.766 234.299 177.766 234.166C177.766 234.05 177.734 233.96 177.671 233.897C177.609 233.832 177.521 233.799 177.407 233.799C177.286 233.799 177.151 233.838 177.002 233.914C176.852 233.989 176.748 234.026 176.691 234.026C176.628 234.026 176.577 234.006 176.538 233.965C176.5 233.923 176.482 233.87 176.482 233.807C176.482 233.668 176.578 233.549 176.77 233.45C176.962 233.351 177.198 233.301 177.48 233.301C177.763 233.301 177.989 233.375 178.156 233.521C178.326 233.667 178.41 233.862 178.41 234.104C178.41 234.264 178.371 234.399 178.293 234.51C178.217 234.619 178.096 234.711 177.932 234.786ZM181.469 235.535C181.469 235.376 181.425 235.245 181.337 235.145C181.249 235.042 181.136 234.991 180.998 234.991C180.864 234.991 180.753 235.04 180.663 235.14C180.574 235.237 180.529 235.361 180.529 235.511C180.529 235.672 180.574 235.804 180.666 235.906C180.758 236.009 180.876 236.06 181.02 236.06C181.151 236.06 181.259 236.012 181.342 235.916C181.427 235.818 181.469 235.691 181.469 235.535ZM180.519 234.734C180.599 234.645 180.694 234.576 180.805 234.529C180.915 234.48 181.033 234.456 181.159 234.456C181.421 234.456 181.641 234.556 181.82 234.756C181.999 234.955 182.089 235.201 182.089 235.496C182.089 235.807 181.988 236.058 181.786 236.25C181.586 236.441 181.32 236.536 180.988 236.536C180.643 236.536 180.371 236.411 180.172 236.16C179.974 235.908 179.875 235.561 179.875 235.12C179.875 234.573 180.028 234.134 180.334 233.802C180.641 233.468 181.048 233.301 181.554 233.301C181.724 233.301 181.845 233.315 181.918 233.343C181.991 233.37 182.028 233.416 182.028 233.479C182.028 233.628 181.913 233.708 181.684 233.721C181.588 233.728 181.511 233.734 181.454 233.741C181.2 233.768 180.998 233.862 180.846 234.021C180.697 234.181 180.587 234.419 180.519 234.734Z" fill="#575364"/>
<rect x="185.952" y="125.663" width="95.0185" height="3.09843" fill="#5C505C"/>
<rect x="185.952" y="132.376" width="81.592" height="3.09843" fill="#5D505E"/>
<rect x="185.952" y="139.09" width="69.1983" height="3.09843" fill="#5C4F63"/>
<rect x="185.952" y="145.803" width="88.8217" height="3.09843" fill="#575062"/>
<rect x="185.952" y="152.516" width="104.314" height="3.09843" fill="#525060"/>
<rect x="185.952" y="159.229" width="84.6905" height="3.09843" fill="#545561"/>
<rect x="185.952" y="165.943" width="59.903" height="3.09843" fill="#53575F"/>
<rect x="185.952" y="172.656" width="75.3951" height="3.09843" fill="#53575F"/>
<rect x="185.952" y="179.369" width="95.0185" height="3.09843" fill="#54575D"/>
<rect x="185.952" y="186.083" width="45.4437" height="3.09843" fill="#56575B"/>
<rect x="185.952" y="192.796" width="116.191" height="3.09843" fill="#5A575B"/>
<rect x="185.952" y="199.509" width="70.7475" height="3.09843" fill="#59555C"/>
<rect x="185.952" y="206.222" width="89.3381" height="3.09843" fill="#59545D"/>
<rect x="185.952" y="212.936" width="100.699" height="3.09843" fill="#59535C"/>
<rect x="185.952" y="219.649" width="122.388" height="3.09843" fill="#5C505C"/>
<rect x="185.952" y="226.362" width="92.9529" height="3.09843" fill="#5D505E"/>
<rect x="185.952" y="233.075" width="59.903" height="3.09843" fill="#5C4F63"/>
<rect x="308.34" y="175.238" width="67.1327" height="57.8374" rx="3" fill="#292929"/>
<path d="M308.34 178.238C308.34 176.581 309.683 175.238 311.34 175.238H372.473C374.129 175.238 375.473 176.581 375.473 178.238V182.984H308.34V178.238Z" fill="#C4C4C4"/>
<path d="M263.155 284.716H299.045L307.307 300.208H255.15L263.155 284.716Z" fill="#B5B1B8"/>
<rect x="242.24" y="300.208" width="77.4608" height="4.13124" fill="#CDCDCD"/>
<rect x="110.557" y="303.823" width="341.344" height="11.3609" rx="4" fill="#9B9999"/>
<path d="M396.54 276.733C396.326 275.509 397.268 274.388 398.51 274.388H426.858C428.081 274.388 429.017 275.474 428.837 276.683L425.552 298.708C425.114 301.647 422.59 303.823 419.618 303.823H406.332C403.418 303.823 400.926 301.729 400.422 298.86L396.54 276.733Z" fill="#87A8BA"/>
<path d="M432.767 279.128C430.721 279.212 427.894 281.833 427.894 281.833L425.5 296C427.249 294.194 428.197 295.383 430.103 294.409C432.009 293.436 433.789 292.637 434.964 291.622C436.422 290.364 437.237 289.456 437.895 287.624C437.895 287.624 439.135 283.595 437.895 281.627C436.692 279.72 434.813 279.045 432.767 279.128Z" stroke="#87A8BA" stroke-width="5"/>
<circle cx="313.945" cy="178.966" r="2.18111" fill="#BC3544"/>
<circle cx="321.034" cy="178.966" r="2.18111" fill="#D1C172"/>
<circle cx="328.123" cy="178.966" r="2.18111" fill="#479B71"/>
<circle cx="172.173" cy="116.259" r="2.18111" fill="#BC3544"/>
<circle cx="179.262" cy="116.259" r="2.18111" fill="#D1C172"/>
<circle cx="186.351" cy="116.259" r="2.18111" fill="#479B71"/>
<path d="M315.563 188.151L313.653 187.246C313.55 187.195 313.475 187.145 313.43 187.094C313.388 187.041 313.366 186.979 313.366 186.909C313.366 186.827 313.39 186.761 313.439 186.71C313.488 186.659 313.554 186.634 313.636 186.634C313.667 186.634 313.702 186.64 313.741 186.651C313.782 186.663 313.84 186.686 313.914 186.719L316.234 187.803L316.258 187.817C316.474 187.917 316.583 188.032 316.583 188.163C316.583 188.294 316.478 188.406 316.269 188.5C316.25 188.512 316.234 188.52 316.222 188.523L313.905 189.587C313.846 189.614 313.796 189.634 313.753 189.646C313.712 189.657 313.673 189.663 313.636 189.663C313.554 189.663 313.488 189.639 313.439 189.59C313.39 189.539 313.366 189.472 313.366 189.388C313.366 189.317 313.387 189.258 313.428 189.209C313.471 189.158 313.546 189.107 313.653 189.057L315.563 188.151ZM317.247 190.864H320.953V191.415H317.247V190.864Z" fill="#54BF72"/>
</svg>
