<svg width="307" height="307" viewBox="0 0 307 307" fill="none" xmlns="http://www.w3.org/2000/svg">
<path d="M100.869 242.043C82.834 295.674 11.3262 295.674 11.3262 295.674C11.3262 295.674 11.3262 224.166 64.957 206.131" stroke="#8EA9A8" stroke-width="12" stroke-linecap="round" stroke-linejoin="round"/>
<path d="M261.92 116.746L154.5 224.166L82.834 152.5L190.254 45.0801C230.912 4.42187 271.57 4.89648 288.973 7.42774C291.658 7.786 294.151 9.01799 296.066 10.9336C297.982 12.8492 299.214 15.342 299.572 18.0273C302.104 35.4297 302.578 76.0879 261.92 116.746Z" stroke="#8EA9A8" stroke-width="12" stroke-linecap="round" stroke-linejoin="round"/>
<path d="M244.043 134.623V236.822C243.995 240.161 242.631 243.345 240.246 245.682L189.146 296.939C187.525 298.559 185.495 299.708 183.272 300.263C181.049 300.819 178.717 300.761 176.524 300.095C174.332 299.429 172.361 298.181 170.823 296.483C169.284 294.784 168.236 292.701 167.789 290.453L154.5 224.166" stroke="#8EA9A8" stroke-width="12" stroke-linecap="round" stroke-linejoin="round"/>
<path d="M172.377 62.957H70.1777C66.8394 63.0046 63.6551 64.3693 61.3184 66.7539L10.0605 117.854C8.44124 119.475 7.29242 121.505 6.73667 123.728C6.18092 125.951 6.23908 128.283 6.90494 130.476C7.57081 132.668 8.81939 134.639 10.5175 136.177C12.2156 137.715 14.2995 138.764 16.5469 139.211L82.834 152.5" stroke="#8EA9A8" stroke-width="12" stroke-linecap="round" stroke-linejoin="round"/>
</svg>
