<svg width="25" height="19" viewBox="0 0 25 19" fill="none" xmlns="http://www.w3.org/2000/svg">
<path d="M1.28294 9.49941L11.0726 1.53721V6.86888C11.0726 7.14148 11.297 7.36309 11.573 7.36309L23.9993 7.36309V11.637L11.573 11.637C11.297 11.637 11.0726 11.8579 11.0726 12.1312L11.0726 17.4629L1.28294 9.50067V9.49941ZM11.2564 0.112038L0.188147 9.114C0.16114 9.13519 0.136354 9.15876 0.11342 9.18635C-0.0615616 9.3961 -0.0304909 9.70651 0.181858 9.87934L11.2231 18.8593C11.313 18.9465 11.4371 19 11.573 19C11.849 19 12.0734 18.7791 12.0734 18.5058V12.6241L24.4997 12.6241C24.7756 12.6241 25 12.4032 25 12.1299V6.86836C25 6.59576 24.7756 6.37415 24.4997 6.37415L12.0734 6.37415V0.49243H12.0717C12.0717 0.382437 12.0344 0.271534 11.958 0.179634C11.783 -0.0301151 11.4687 -0.0608082 11.2564 0.112032L11.2564 0.112038Z" fill="#D8DEED"/>
</svg>
