<svg width="34" height="23" viewBox="0 0 34 23" fill="none" xmlns="http://www.w3.org/2000/svg">
<path d="M5.69531 5.37891V22H0.0703125V0.867188H5.34375L5.69531 5.37891ZM4.875 10.6914H3.35156C3.35156 9.12891 3.55339 7.72266 3.95703 6.47266C4.36068 5.20964 4.92708 4.13542 5.65625 3.25C6.38542 2.35156 7.2513 1.66797 8.25391 1.19922C9.26953 0.717448 10.4023 0.476562 11.6523 0.476562C12.6419 0.476562 13.5469 0.619792 14.3672 0.90625C15.1875 1.19271 15.8906 1.64844 16.4766 2.27344C17.0755 2.89844 17.5312 3.72526 17.8438 4.75391C18.1693 5.78255 18.332 7.03906 18.332 8.52344V22H12.668V8.50391C12.668 7.56641 12.5378 6.83724 12.2773 6.31641C12.0169 5.79557 11.6328 5.43099 11.125 5.22266C10.6302 5.0013 10.0182 4.89062 9.28906 4.89062C8.53385 4.89062 7.8763 5.04036 7.31641 5.33984C6.76953 5.63932 6.3138 6.05599 5.94922 6.58984C5.59766 7.11068 5.33073 7.72266 5.14844 8.42578C4.96615 9.12891 4.875 9.88411 4.875 10.6914ZM26.8828 19.2852C26.8828 18.4518 27.1693 17.7552 27.7422 17.1953C28.3281 16.6354 29.1029 16.3555 30.0664 16.3555C31.0299 16.3555 31.7982 16.6354 32.3711 17.1953C32.957 17.7552 33.25 18.4518 33.25 19.2852C33.25 20.1185 32.957 20.8151 32.3711 21.375C31.7982 21.9349 31.0299 22.2148 30.0664 22.2148C29.1029 22.2148 28.3281 21.9349 27.7422 21.375C27.1693 20.8151 26.8828 20.1185 26.8828 19.2852Z" fill="#8EA9A8"/>
</svg>
