<svg width="238" height="238" viewBox="0 0 238 238" fill="none" xmlns="http://www.w3.org/2000/svg">
<path fill-rule="evenodd" clip-rule="evenodd" d="M79.3333 87.2667C79.3333 82.8914 75.7752 79.3333 71.4 79.3333C67.0248 79.3333 63.4667 82.8914 63.4667 87.2667C63.4667 91.6419 67.0248 95.2 71.4 95.2C75.7752 95.2 79.3333 91.6419 79.3333 87.2667ZM107.1 63.4667H51.5667C49.3771 63.4667 47.6 65.2398 47.6 67.4333V115.033C47.6 117.227 49.3771 119 51.5667 119H59.5C61.6896 119 63.4667 117.227 63.4667 115.033C63.4667 112.84 61.6896 111.067 59.5 111.067H55.5333V71.4H103.133V105.458L94.0378 96.3622C92.4868 94.8113 89.9799 94.8113 88.4289 96.3622L72.5622 112.229C71.0113 113.78 71.0113 116.287 72.5622 117.838C74.1132 119.389 76.6201 119.389 78.1711 117.838L91.2333 104.776L104.296 117.838C105.053 118.595 106.069 119 107.1 119C107.612 119 108.127 118.905 108.619 118.699C110.099 118.088 111.067 116.636 111.067 115.033V67.4333C111.067 65.2398 109.29 63.4667 107.1 63.4667ZM186.433 134.867H154.7C152.51 134.867 150.733 136.64 150.733 138.833C150.733 141.027 152.51 142.8 154.7 142.8H186.433C188.623 142.8 190.4 141.027 190.4 138.833C190.4 136.64 188.623 134.867 186.433 134.867ZM130.9 119H178.5C180.69 119 182.467 117.227 182.467 115.033C182.467 112.84 180.69 111.067 178.5 111.067H130.9C128.71 111.067 126.933 112.84 126.933 115.033C126.933 117.227 128.71 119 130.9 119ZM170.567 63.4667H130.9C128.71 63.4667 126.933 65.2398 126.933 67.4333C126.933 69.6269 128.71 71.4 130.9 71.4H170.567C172.756 71.4 174.533 69.6269 174.533 67.4333C174.533 65.2398 172.756 63.4667 170.567 63.4667ZM186.433 87.2667H162.633C160.444 87.2667 158.667 89.0398 158.667 91.2333C158.667 93.4269 160.444 95.2 162.633 95.2H186.433C188.623 95.2 190.4 93.4269 190.4 91.2333C190.4 89.0398 188.623 87.2667 186.433 87.2667ZM130.9 95.2H146.767C148.956 95.2 150.733 93.4269 150.733 91.2333C150.733 89.0398 148.956 87.2667 146.767 87.2667H130.9C128.71 87.2667 126.933 89.0398 126.933 91.2333C126.933 93.4269 128.71 95.2 130.9 95.2ZM111.067 138.833C111.067 141.027 112.844 142.8 115.033 142.8H138.833C141.023 142.8 142.8 141.027 142.8 138.833C142.8 136.64 141.023 134.867 138.833 134.867H115.033C112.844 134.867 111.067 136.64 111.067 138.833ZM51.5667 142.8H99.1667C101.356 142.8 103.133 141.027 103.133 138.833C103.133 136.64 101.356 134.867 99.1667 134.867H51.5667C49.3771 134.867 47.6 136.64 47.6 138.833C47.6 141.027 49.3771 142.8 51.5667 142.8ZM133.704 215.362C132.153 213.811 129.647 213.811 128.096 215.362C126.545 216.913 126.545 219.42 128.096 220.971L143.962 236.838C144.736 237.611 145.751 238 146.767 238C147.782 238 148.798 237.611 149.571 236.838C151.122 235.287 151.122 232.78 149.571 231.229L133.704 215.362ZM119 190.4C116.81 190.4 115.033 192.173 115.033 194.367V204.624L88.4289 231.229C86.8779 232.78 86.8779 235.287 88.4289 236.838C89.2024 237.611 90.2179 238 91.2333 238C92.2488 238 93.2643 237.611 94.0378 236.838L121.804 209.071C122.55 208.329 122.967 207.322 122.967 206.267V194.367C122.967 192.173 121.19 190.4 119 190.4ZM238 11.9V27.7667C238 29.9602 236.223 31.7333 234.033 31.7333H230.067V162.633C230.067 173.569 221.169 182.467 210.233 182.467H27.7667C16.8306 182.467 7.93333 173.569 7.93333 162.633V43.6333C7.93333 41.4398 9.7104 39.6667 11.9 39.6667C14.0896 39.6667 15.8667 41.4398 15.8667 43.6333V162.633C15.8667 169.194 21.2058 174.533 27.7667 174.533H210.233C216.794 174.533 222.133 169.194 222.133 162.633V27.7667C222.133 25.5731 223.91 23.8 226.1 23.8H230.067V15.8667H7.93333V23.8H210.233C212.423 23.8 214.2 25.5731 214.2 27.7667C214.2 29.9602 212.423 31.7333 210.233 31.7333H3.96667C1.77707 31.7333 0 29.9602 0 27.7667V11.9C0 9.70643 1.77707 7.93333 3.96667 7.93333H115.033V3.96667C115.033 1.7731 116.81 0 119 0C121.19 0 122.967 1.7731 122.967 3.96667V7.93333H234.033C236.223 7.93333 238 9.70643 238 11.9Z" fill="#8EA9A8"/>
</svg>
