<svg width="25" height="19" viewBox="0 0 25 19" fill="none" xmlns="http://www.w3.org/2000/svg">
<mask id="path-1-inside-1_331_2" fill="white">
<path d="M23.7171 9.50059L13.9274 17.4628V12.1311C13.9274 11.8585 13.703 11.6369 13.427 11.6369H1.00074L1.00074 7.36301H13.427C13.703 7.36301 13.9274 7.14212 13.9274 6.86881V1.53714L23.7171 9.49933V9.50059ZM13.7436 18.888L24.8119 9.886C24.8389 9.86481 24.8636 9.84124 24.8866 9.81365C25.0616 9.6039 25.0305 9.29349 24.8181 9.12066L13.7769 0.140684C13.687 0.0535317 13.5629 0 13.427 0C13.151 0 12.9266 0.220895 12.9266 0.494205V6.37593H0.500329C0.224352 6.37593 0 6.59682 0 6.87013L0 12.1316C0 12.4042 0.224371 12.6258 0.500329 12.6258H12.9266V18.5076H12.9283C12.9283 18.6176 12.9656 18.7285 13.042 18.8204C13.217 19.0301 13.5313 19.0608 13.7436 18.888L13.7436 18.888Z"/>
</mask>
<path d="M23.7171 9.50059L13.9274 17.4628V12.1311C13.9274 11.8585 13.703 11.6369 13.427 11.6369H1.00074L1.00074 7.36301H13.427C13.703 7.36301 13.9274 7.14212 13.9274 6.86881V1.53714L23.7171 9.49933V9.50059ZM13.7436 18.888L24.8119 9.886C24.8389 9.86481 24.8636 9.84124 24.8866 9.81365C25.0616 9.6039 25.0305 9.29349 24.8181 9.12066L13.7769 0.140684C13.687 0.0535317 13.5629 0 13.427 0C13.151 0 12.9266 0.220895 12.9266 0.494205V6.37593H0.500329C0.224352 6.37593 0 6.59682 0 6.87013L0 12.1316C0 12.4042 0.224371 12.6258 0.500329 12.6258H12.9266V18.5076H12.9283C12.9283 18.6176 12.9656 18.7285 13.042 18.8204C13.217 19.0301 13.5313 19.0608 13.7436 18.888L13.7436 18.888Z" fill="#D8DEED"/>
<path d="M23.7171 9.50059L28.7171 9.50059V11.8789L26.8719 13.3796L23.7171 9.50059ZM13.9274 17.4628L17.0823 21.3418L8.92736 27.9744V17.4628H13.9274ZM1.00074 11.6369V16.6369H-3.99926V11.6369H1.00074ZM1.00074 7.36301H-3.99926L-3.99926 2.36301H1.00074L1.00074 7.36301ZM13.9274 1.53714L8.92736 1.53714V-8.97443L17.0823 -2.34187L13.9274 1.53714ZM23.7171 9.49933L26.8719 5.62033L28.7171 7.121V9.49933L23.7171 9.49933ZM13.7436 18.888L16.8985 22.767L16.2367 23.3052L15.4338 23.5936L13.7436 18.888ZM24.8119 9.886L21.657 6.00698L21.6908 5.97952L21.725 5.95265L24.8119 9.886ZM24.8866 9.81365L21.0414 6.61756L21.0472 6.61066L24.8866 9.81365ZM24.8181 9.12066L27.973 5.24163L27.9743 5.24272L24.8181 9.12066ZM13.7769 0.140684L10.6221 4.01971L10.453 3.88222L10.2966 3.73054L13.7769 0.140684ZM12.9266 6.37593L17.9266 6.37593V11.3759H12.9266V6.37593ZM12.9266 12.6258V7.62585L17.9266 7.62585V12.6258H12.9266ZM12.9266 18.5076V23.5076H7.92662V18.5076H12.9266ZM12.9283 18.5076V13.5076H17.9283V18.5076H12.9283ZM13.042 18.8204L9.20265 22.0234L9.19699 22.0165L13.042 18.8204ZM13.7436 18.888L10.5871 15.0103L11.2495 14.4711L12.0534 14.1823L13.7436 18.888ZM26.8719 13.3796L17.0823 21.3418L10.7725 13.5838L20.5622 5.62159L26.8719 13.3796ZM8.92736 17.4628V12.1311H18.9274V17.4628H8.92736ZM8.92736 12.1311C8.92736 14.6779 10.9999 16.6369 13.427 16.6369V6.63691C16.4061 6.63691 18.9274 9.03913 18.9274 12.1311H8.92736ZM13.427 16.6369H1.00074L1.00074 6.63691H13.427V16.6369ZM-3.99926 11.6369V7.36301H6.00074V11.6369H-3.99926ZM1.00074 2.36301L13.427 2.36301V12.363H1.00074L1.00074 2.36301ZM13.427 2.36301C11.0045 2.36301 8.92736 4.31819 8.92736 6.86881L18.9274 6.86881C18.9274 9.96605 16.4015 12.363 13.427 12.363V2.36301ZM8.92736 6.86881V1.53714L18.9274 1.53714V6.86881L8.92736 6.86881ZM17.0823 -2.34187L26.8719 5.62033L20.5622 13.3783L10.7725 5.41614L17.0823 -2.34187ZM28.7171 9.49933V9.50059L18.7171 9.50059V9.49933L28.7171 9.49933ZM10.5888 15.0089L21.657 6.00698L27.9667 13.765L16.8985 22.767L10.5888 15.0089ZM21.725 5.95265C21.4971 6.13146 21.2626 6.35145 21.0414 6.61757L28.7317 13.0097C28.4647 13.331 28.1806 13.5982 27.8987 13.8194L21.725 5.95265ZM21.0472 6.61066C19.4219 8.55891 19.7338 11.4293 21.6619 12.9986L27.9743 5.24272C30.3272 7.15767 30.7012 10.6489 28.726 13.0166L21.0472 6.61066ZM21.6633 12.9997L10.6221 4.01971L16.9318 -3.73834L27.973 5.24163L21.6633 12.9997ZM10.2966 3.73054C11.1195 4.52837 12.236 5 13.427 5V-5C14.8898 -5 16.2546 -4.42131 17.2573 -3.44917L10.2966 3.73054ZM13.427 5C15.8494 5 17.9266 3.04485 17.9266 0.494205L7.92662 0.494205C7.92662 -2.60306 10.4525 -5 13.427 -5V5ZM17.9266 0.494205V6.37593L7.92662 6.37593V0.494205L17.9266 0.494205ZM12.9266 11.3759H0.500329L0.500329 1.37593L12.9266 1.37593V11.3759ZM0.500329 11.3759C2.92284 11.3759 5 9.42077 5 6.87013H-5C-5 3.77288 -2.47413 1.37593 0.500329 1.37593L0.500329 11.3759ZM5 6.87013V12.1316H-5V6.87013H5ZM5 12.1316C5 9.58481 2.92743 7.62585 0.500329 7.62585L0.500329 17.6258C-2.47869 17.6258 -5 15.2237 -5 12.1316H5ZM0.500329 7.62585H12.9266V17.6258H0.500329L0.500329 7.62585ZM17.9266 12.6258V18.5076H7.92662L7.92662 12.6258H17.9266ZM12.9266 13.5076H12.9283V23.5076H12.9266V13.5076ZM17.9283 18.5076C17.9283 17.4796 17.5758 16.4527 16.8871 15.6242L9.19699 22.0165C8.35553 21.0043 7.92829 19.7555 7.92829 18.5076H17.9283ZM16.8814 15.6174C15.3044 13.727 12.5004 13.4528 10.5871 15.0103L16.9001 22.7656C14.5621 24.6688 11.1296 24.3332 9.20266 22.0234L16.8814 15.6174ZM12.0534 14.1823L12.0534 14.1823L15.4338 23.5936L15.4338 23.5936L12.0534 14.1823Z" fill="#D8DEED" mask="url(#path-1-inside-1_331_2)"/>
</svg>
