<svg width="504" height="340" viewBox="0 0 504 340" fill="none" xmlns="http://www.w3.org/2000/svg">
<path d="M500.2 11.25C490.435 -4.03899 472.341 -11.16 352.39 55.199C346.863 49.9959 340.956 45.2029 334.683 40.937C334.683 40.937 334.68 40.937 334.68 40.9331L334.676 40.9292C318.598 30.0382 300.899 22.5232 282.063 18.5852C282.047 18.5813 282.027 18.5852 282.012 18.5852C243.973 10.511 204.918 17.6282 172.062 38.6322C146.863 54.7492 127.386 77.8002 115.742 105.296C115.738 105.308 115.726 105.32 115.718 105.335C105.105 130.226 101.605 157.499 105.554 184.245C105.57 184.402 105.539 184.554 105.558 184.706C106.785 193.015 108.738 201.124 111.293 208.847C-4.67735 293.14 -6.13734 313.057 3.82266 328.617C7.93986 335.047 13.4672 339.066 23.5687 339.066C38.2637 339.066 62.6237 330.566 106.354 308.636C123.077 300.257 141.495 290.409 161.01 279.484C167.924 284.859 175.291 289.621 183.022 293.64C183.033 293.644 183.045 293.656 183.057 293.664C204.498 304.937 228.041 310.527 251.549 310.527C279.279 310.527 306.959 302.738 331.076 287.328C370.65 262.027 395.939 219.004 398.826 172.188C398.841 172.031 398.9 171.887 398.912 171.727C399.787 157.301 398.47 143.059 395.22 129.25C411.22 117.547 425.997 106.336 439.052 95.9257C503.599 44.4647 510.282 27.0347 500.2 11.2497L500.2 11.25ZM157.26 240.11C155.737 238.251 154.159 236.446 152.749 234.501C152.745 234.497 152.737 234.489 152.737 234.485C152.733 234.473 152.725 234.462 152.714 234.45C151.346 232.579 150.053 230.653 148.792 228.676C146.647 225.321 144.542 221.649 142.526 217.746C141.128 214.836 139.76 211.895 138.495 208.629C135.858 202.262 133.78 195.582 132.3 188.691C132.546 188.535 132.76 188.367 133.007 188.211C133.964 187.613 134.995 187.047 135.991 186.465C137.62 185.512 139.26 184.562 140.999 183.66C142.163 183.054 143.385 182.48 144.593 181.902C146.296 181.086 148.018 180.273 149.819 179.5C151.139 178.93 152.503 178.387 153.866 177.844C155.69 177.121 157.557 176.414 159.472 175.734C160.917 175.219 162.382 174.715 163.886 174.223C165.874 173.574 167.925 172.953 169.999 172.348C171.538 171.898 173.077 171.445 174.663 171.027C176.882 170.434 179.175 169.887 181.491 169.34C183.054 168.969 184.593 168.59 186.194 168.246C188.827 167.68 191.565 167.164 194.315 166.66C195.714 166.402 197.065 166.117 198.499 165.875C202.733 165.156 207.077 164.496 211.573 163.914C215.116 163.453 218.6 162.879 222.034 162.207C223.155 161.988 224.241 161.703 225.35 161.461C227.647 160.961 229.936 160.457 232.182 159.863C233.471 159.523 234.729 159.117 236.003 158.742C238.018 158.152 240.03 157.555 241.999 156.887C243.319 156.437 244.612 155.941 245.921 155.453C247.792 154.758 249.655 154.055 251.487 153.285C252.796 152.738 254.085 152.152 255.374 151.566C257.147 150.762 258.909 149.93 260.643 149.058C261.909 148.422 263.163 147.758 264.413 147.082C266.12 146.156 267.807 145.195 269.475 144.199C270.686 143.476 271.881 142.75 273.069 141.992C274.725 140.933 276.358 139.832 277.967 138.699C279.1 137.91 280.237 137.121 281.35 136.297C282.987 135.086 284.577 133.808 286.167 132.527C287.198 131.691 288.237 130.883 289.245 130.019C290.909 128.598 292.526 127.098 294.135 125.59C295.014 124.773 295.909 123.984 296.768 123.144C298.639 121.309 300.452 119.383 302.249 117.434C302.792 116.84 303.362 116.293 303.901 115.687C306.237 113.078 308.503 110.375 310.706 107.562C311.014 107.172 311.299 106.746 311.6 106.352C313.46 103.934 315.284 101.469 317.049 98.9101C317.717 97.9414 318.342 96.9218 318.991 95.9374C320.35 93.8827 321.702 91.8163 322.999 89.6757C323.721 88.4843 324.405 87.2382 325.108 86.0234C326.272 83.9961 327.436 81.9648 328.553 79.8632C329.264 78.5234 329.948 77.1484 330.635 75.7734C331.303 74.4531 332.003 73.1757 332.647 71.8203C335.479 74.3555 338.202 77.0391 340.799 79.8633C342.967 82.1758 345.065 84.6445 347.081 87.1719C349.815 90.6563 352.143 93.9024 354.194 97.1055C354.209 97.1329 354.237 97.1602 354.26 97.1915C354.276 97.2188 354.288 97.254 354.303 97.2813C356.811 101.203 358.995 105.262 361.022 109.379C353.018 115.118 344.647 121.055 335.604 127.332C310.971 144.43 284.807 161.84 257.854 179.082C251.491 183.153 245.174 187.125 238.987 191.016L238.171 191.532C208.296 210.278 181.292 226.391 157.261 240.11L157.26 240.11ZM137.096 120.89C138.081 120.605 139.034 120.308 140.038 120.027C141.409 119.652 142.788 119.281 144.194 118.925C146.335 118.382 148.534 117.867 150.757 117.363C152.206 117.038 153.647 116.702 155.132 116.394C157.6 115.878 160.139 115.409 162.698 114.949C164.003 114.714 165.272 114.46 166.6 114.238C170.53 113.581 174.542 112.976 178.666 112.445C181.588 112.07 184.467 111.617 187.311 111.097C188.201 110.933 189.065 110.734 189.944 110.554C191.881 110.167 193.822 109.781 195.721 109.331C196.768 109.085 197.787 108.788 198.822 108.527C200.518 108.089 202.217 107.652 203.885 107.159C204.986 106.835 206.068 106.464 207.154 106.116C208.717 105.616 210.279 105.112 211.815 104.566C212.928 104.167 214.026 103.73 215.131 103.304C216.6 102.737 218.065 102.167 219.51 101.558C220.619 101.089 221.709 100.589 222.803 100.097C224.201 99.4641 225.596 98.8196 226.971 98.1438C228.065 97.6047 229.139 97.0461 230.213 96.4797C231.545 95.7805 232.869 95.0617 234.178 94.3195C235.248 93.7101 236.311 93.089 237.365 92.4484C238.643 91.6749 239.908 90.8859 241.162 90.0734C242.197 89.4015 243.229 88.7179 244.248 88.0187C245.479 87.1749 246.693 86.2999 247.9 85.4132C248.904 84.6788 249.9 83.9405 250.885 83.1788C252.072 82.253 253.244 81.296 254.408 80.335C255.365 79.5459 256.322 78.7569 257.264 77.9366C258.416 76.9288 259.549 75.8819 260.678 74.835C261.584 73.9912 262.502 73.1592 263.393 72.2881C264.526 71.1865 265.623 70.0381 266.729 68.8897C267.58 68.0108 268.436 67.1436 269.272 66.2335C270.408 64.9952 271.518 63.7023 272.627 62.4132C273.385 61.5382 274.151 60.6866 274.897 59.7882C276.135 58.2882 277.334 56.7257 278.529 55.1632C279.108 54.4132 279.701 53.6944 280.264 52.9327C281.994 50.6046 283.678 48.2179 285.326 45.7608C294.42 48.3546 303.162 52.003 311.455 56.6588C311.455 56.6627 311.451 56.6705 311.451 56.6705C311.088 57.483 310.69 58.2447 310.315 59.0494C309.26 61.3189 308.205 63.5806 307.088 65.7564C306.483 66.9439 305.834 68.065 305.205 69.2212C304.28 70.936 303.362 72.6665 302.401 74.3189C301.682 75.5455 300.932 76.7095 300.194 77.9048C299.268 79.4048 298.346 80.9165 297.389 82.3618C296.6 83.5493 295.776 84.6821 294.971 85.8345C294.006 87.2017 293.049 88.5728 292.053 89.8892C291.201 91.0142 290.322 92.0884 289.447 93.1822C288.44 94.4361 287.432 95.6861 286.397 96.8892C285.49 97.9439 284.553 98.9595 283.623 99.9751C282.565 101.127 281.502 102.272 280.416 103.374C279.459 104.346 278.479 105.288 277.498 106.225C276.385 107.284 275.26 108.327 274.111 109.338C273.104 110.229 272.084 111.092 271.053 111.944C269.877 112.913 268.69 113.854 267.486 114.772C266.432 115.573 265.377 116.362 264.299 117.124C263.057 118.003 261.795 118.854 260.526 119.682C259.432 120.393 258.342 121.1 257.229 121.776C255.92 122.573 254.58 123.323 253.24 124.065C252.115 124.686 250.994 125.315 249.846 125.897C248.451 126.608 247.022 127.268 245.596 127.928C244.455 128.456 243.322 128.991 242.158 129.487C240.662 130.12 239.127 130.69 237.6 131.26C236.451 131.69 235.322 132.147 234.154 132.542C232.518 133.1 230.846 133.585 229.17 134.077C228.061 134.401 226.971 134.764 225.842 135.061C223.947 135.565 222.006 135.987 220.069 136.405C219.115 136.612 218.186 136.858 217.229 137.049C214.299 137.62 211.326 138.112 208.295 138.506C203.53 139.124 198.928 139.838 194.4 140.608C193.084 140.831 191.795 141.073 190.498 141.307C187.181 141.913 183.928 142.557 180.748 143.245C179.494 143.514 178.232 143.776 177.002 144.061C172.842 145.018 168.763 146.026 164.846 147.131C164.533 147.221 164.24 147.323 163.928 147.413C160.354 148.436 156.904 149.53 153.533 150.678C152.252 151.116 151.002 151.573 149.748 152.026C147.345 152.893 144.998 153.799 142.709 154.737C141.447 155.253 140.177 155.756 138.951 156.295C136.119 157.526 133.373 158.815 130.724 160.147C130.365 160.327 129.966 160.487 129.611 160.667C129.841 147.12 132.369 133.683 137.095 120.89L137.096 120.89ZM185.862 60.214C205.714 47.519 228.292 40.956 251.292 40.956C253.187 40.956 255.078 41.0068 256.972 41.0966C256.789 41.331 256.601 41.5732 256.414 41.8076C254.152 44.6201 251.816 47.3115 249.398 49.8701C248.96 50.3349 248.511 50.7724 248.07 51.2256C245.601 53.7608 243.074 56.2022 240.453 58.4795C240.347 58.5732 240.242 58.6748 240.132 58.7724C237.433 61.1005 234.632 63.2529 231.773 65.3076C231.246 65.6826 230.726 66.0694 230.199 66.4326C227.386 68.3818 224.507 70.206 221.546 71.8974C221.027 72.1943 220.492 72.4756 219.968 72.7646C216.898 74.456 213.769 76.0458 210.539 77.4638C210.5 77.4795 210.46 77.5029 210.421 77.5185C207.175 78.9404 203.82 80.1747 200.409 81.3154C199.8 81.5225 199.187 81.7373 198.574 81.9326C195.257 82.9873 191.87 83.9092 188.41 84.6982C187.765 84.8427 187.109 84.9717 186.468 85.1123C182.851 85.8857 179.175 86.5576 175.409 87.0459C171.058 87.6045 166.823 88.249 162.659 88.9443C161.292 89.1669 159.964 89.4208 158.616 89.663C156.874 89.9716 155.101 90.2568 153.39 90.5927C162.167 78.6397 173.132 68.3587 185.863 60.2137L185.862 60.214ZM70.8224 285.784C84.0374 274.636 102.17 260.28 126.967 242.077C127.046 242.202 127.124 242.347 127.202 242.468C128.749 244.874 130.338 247.257 132.03 249.573C132.042 249.585 132.053 249.589 132.057 249.608C132.858 250.718 133.725 251.776 134.561 252.854C109.123 266.889 87.7411 277.803 70.8231 285.784L70.8224 285.784ZM317.272 265.741C288.069 284.413 252.553 289.518 219.831 280.721C219.976 280.666 220.105 280.596 220.253 280.541C223.886 279.112 227.702 277.776 231.683 276.522C232.648 276.221 233.683 275.944 234.668 275.655C237.777 274.729 240.968 273.846 244.277 273.022C245.687 272.67 247.129 272.338 248.574 272.002C251.773 271.268 255.066 270.584 258.437 269.94C259.832 269.678 261.199 269.397 262.625 269.143C267.406 268.303 272.312 267.526 277.426 266.866C280.684 266.44 283.898 265.924 287.074 265.315C288.301 265.08 289.488 264.772 290.703 264.51C292.629 264.096 294.566 263.705 296.453 263.221C297.832 262.869 299.176 262.436 300.535 262.049C302.215 261.569 303.91 261.119 305.57 260.58C306.98 260.127 308.348 259.596 309.738 259.104C311.297 258.549 312.867 258.022 314.398 257.416C315.793 256.862 317.152 256.24 318.527 255.647C320.004 255.01 321.5 254.397 322.953 253.709C324.297 253.076 325.602 252.377 326.922 251.698C328.356 250.963 329.805 250.252 331.219 249.475C332.508 248.764 333.754 247.987 335.016 247.237C336.41 246.408 337.817 245.596 339.184 244.717C340.406 243.932 341.586 243.092 342.785 242.272C343.871 241.526 344.985 240.826 346.055 240.053C337.965 249.994 328.289 258.698 317.274 265.741L317.272 265.741ZM373.467 167.471C372.901 168.596 372.327 169.702 371.741 170.799C371.104 172.01 370.471 173.229 369.807 174.405C369.018 175.823 368.194 177.186 367.378 178.565C366.69 179.717 366.01 180.889 365.299 182.014C364.463 183.342 363.596 184.623 362.729 185.905C361.995 186.998 361.272 188.104 360.518 189.162C359.631 190.405 358.721 191.6 357.815 192.795C357.038 193.826 356.264 194.877 355.464 195.873C354.534 197.034 353.577 198.143 352.62 199.256C351.795 200.221 350.983 201.205 350.143 202.135C349.17 203.217 348.155 204.241 347.151 205.283C346.284 206.178 345.432 207.096 344.545 207.959C343.522 208.963 342.456 209.908 341.405 210.865C340.502 211.69 339.612 212.533 338.69 213.33C337.616 214.256 336.499 215.115 335.401 215.994C334.456 216.752 333.526 217.533 332.557 218.256C331.424 219.1 330.26 219.893 329.108 220.694C328.135 221.377 327.17 222.084 326.174 222.733C324.975 223.51 323.745 224.229 322.518 224.963C321.522 225.561 320.538 226.194 319.522 226.76C318.256 227.467 316.956 228.108 315.663 228.772C314.643 229.291 313.639 229.846 312.604 230.338C311.249 230.983 309.85 231.561 308.467 232.151C307.456 232.588 306.463 233.053 305.432 233.459C303.959 234.041 302.448 234.553 300.94 235.084C299.956 235.432 298.991 235.811 297.987 236.139C296.373 236.658 294.721 237.104 293.069 237.569C292.139 237.826 291.225 238.127 290.288 238.369C288.479 238.83 286.624 239.209 284.776 239.596C283.952 239.768 283.151 239.983 282.323 240.139C279.627 240.655 276.889 241.092 274.112 241.455C269.436 242.061 264.901 242.744 260.452 243.494C259.057 243.729 257.737 244.002 256.37 244.256C253.374 244.799 250.393 245.354 247.507 245.963C245.905 246.303 244.366 246.682 242.796 247.045C240.249 247.635 237.71 248.225 235.257 248.869C233.632 249.295 232.065 249.748 230.487 250.197C228.198 250.846 225.928 251.506 223.721 252.209C222.147 252.709 220.608 253.221 219.081 253.748C216.975 254.471 214.909 255.209 212.882 255.983C211.397 256.549 209.925 257.119 208.487 257.709C206.522 258.514 204.612 259.35 202.729 260.201C201.37 260.819 199.995 261.432 198.682 262.073C196.807 262.987 195.011 263.944 193.218 264.905C192.026 265.549 190.804 266.174 189.651 266.842C189.311 267.037 188.933 267.217 188.597 267.412C187.585 266.807 186.647 266.073 185.651 265.436C214.811 248.534 245.94 229.549 277.674 209.264C280.428 207.506 283.186 205.736 285.749 204.045C299.866 195.022 313.608 185.912 326.964 176.99C327.069 176.916 327.182 176.849 327.284 176.783C342.948 166.248 357.995 155.861 372.268 145.748C373.299 152.908 373.748 160.154 373.467 167.471L373.467 167.471ZM382.053 94.061C380.151 90.4672 378.104 86.9282 375.893 83.456C399.725 70.44 418.393 61.038 432.823 54.284C419.948 65.124 403.155 78.417 382.053 94.061H382.053Z" fill="#8EA9A8"/>
</svg>
