<svg width="45" height="23" viewBox="0 0 45 23" fill="none" xmlns="http://www.w3.org/2000/svg">
<path d="M27.842 1.44811H9.74531C7.06465 1.44811 4.62832 2.5401 2.8626 4.29795C1.096 6.05581 0 8.48128 0 11.1509C0 13.8196 1.096 16.2451 2.8626 18.0029C4.62832 19.7617 7.06465 20.8528 9.74531 20.8528H26.7302C28.6233 22.2029 30.9401 23 33.4327 23H33.4485C36.6249 23 39.5147 21.7059 41.6074 19.6225C43.6992 17.5392 45 14.664 45 11.5C45 8.33691 43.701 5.45994 41.6048 3.38009C39.5095 1.29499 36.6214 0 33.4485 0H33.4327C31.4095 0 29.5022 0.526744 27.842 1.44811ZM34.0488 9.95039L34.0866 9.95827C34.1587 9.65639 34.3354 9.41665 34.6175 9.24428C34.8987 9.07103 35.1914 9.0194 35.4973 9.09115L35.5061 9.05353C35.2011 8.98178 34.9611 8.8059 34.788 8.52591C34.614 8.24416 34.5621 7.95279 34.6342 7.65004L34.5964 7.64129C34.5243 7.94491 34.3477 8.18379 34.0664 8.35703C33.7843 8.53028 33.4907 8.58103 33.1857 8.50928L33.177 8.54691C33.4819 8.61866 33.7219 8.79541 33.8959 9.0754C34.0708 9.35452 34.1209 9.6459 34.0488 9.95039ZM37.2894 11.4178L37.3359 11.4283C37.4256 11.0476 37.648 10.7475 38.0022 10.5305C38.3555 10.3126 38.7229 10.2488 39.1061 10.3389L39.1175 10.2925C38.7352 10.2024 38.4337 9.98189 38.2157 9.6284C37.9969 9.27577 37.9327 8.90915 38.0224 8.52941L37.9758 8.51891C37.8861 8.89953 37.6638 9.19878 37.3096 9.41665C36.9563 9.63452 36.588 9.69839 36.2057 9.60827L36.1942 9.65464C36.5774 9.74477 36.878 9.96527 37.096 10.3179C37.3148 10.6696 37.379 11.0371 37.2894 11.4178ZM33.8801 6.07943C32.5011 6.75055 31.5088 8.11466 31.3937 9.74827C31.2214 12.1877 33.068 14.3035 35.5175 14.475C36.6803 14.5563 37.771 14.1845 38.613 13.5107C39.0305 13.1765 39.462 13.4714 39.2801 13.8922C38.2843 16.204 35.9007 17.7457 33.2385 17.5593C29.8731 17.3239 27.3375 14.4172 27.5739 11.0678C27.7998 7.85741 30.5024 5.39607 33.7008 5.42494C34.2905 5.43019 34.4153 5.81869 33.8801 6.07943ZM33.4327 1.35886H33.4485C39.0516 1.35886 43.6359 5.92194 43.6359 11.5C43.6359 17.0781 39.0454 21.642 33.4485 21.642H33.4327C27.8358 21.642 23.2453 17.0781 23.2453 11.5C23.2453 5.92194 27.8297 1.35886 33.4327 1.35886Z" fill="#8EA9A8"/>
</svg>
